<svg id="圖層_1" data-name="圖層 1" xmlns="http://www.w3.org/2000/svg" viewBox="0 0 24 24"><defs><style>.cls-1{fill:#fff;}.cls-2{fill:#727171;}</style></defs><rect class="cls-1" width="24" height="24"/><path class="cls-2" d="M12,19.62A7.62,7.62,0,1,1,19.62,12,7.63,7.63,0,0,1,12,19.62ZM12,5.4A6.6,6.6,0,1,0,18.6,12,6.61,6.61,0,0,0,12,5.4Z"/><path class="cls-2" d="M10.38,10.31l0,.06,0,.07c0,.05-.05.09-.07.14l-.16.26a2.48,2.48,0,0,0-.3.49.75.75,0,0,0,0,.67.66.66,0,0,0,.74.32l0,0a.62.62,0,0,0,.4-.36.73.73,0,0,0,.06-.3.93.93,0,0,0-.15-.45l-.27-.43-.17-.28A.91.91,0,0,1,10.38,10.31Z"/><rect class="cls-2" x="9.94" y="8.17" width="0.9" height="1.75" rx="0.22"/><rect class="cls-2" x="13.16" y="8.17" width="0.9" height="1.75" rx="0.22"/><path class="cls-2" d="M13.86,14.66a.18.18,0,0,1-.19-.18A1.56,1.56,0,0,0,12,13.08a1.56,1.56,0,0,0-1.67,1.4.18.18,0,0,1-.19.18.18.18,0,0,1-.18-.18,1.91,1.91,0,0,1,2-1.76,1.91,1.91,0,0,1,2,1.76A.18.18,0,0,1,13.86,14.66Z"/><path class="cls-2" d="M13.86,14.84a.37.37,0,0,1-.37-.36A1.39,1.39,0,0,0,12,13.25a1.39,1.39,0,0,0-1.49,1.23.37.37,0,0,1-.37.36.36.36,0,0,1-.36-.36A2.1,2.1,0,0,1,12,12.54a2.1,2.1,0,0,1,2.22,1.94A.36.36,0,0,1,13.86,14.84ZM12,12.9a1.73,1.73,0,0,1,1.85,1.58h0A1.74,1.74,0,0,0,12,12.9a1.74,1.74,0,0,0-1.86,1.58A1.75,1.75,0,0,1,12,12.9Z"/></svg>