<svg id="圖層_1" data-name="圖層 1" xmlns="http://www.w3.org/2000/svg" viewBox="0 0 24 24"><defs><style>.cls-1{fill:#fff;}.cls-2{fill:#727171;}</style></defs><rect class="cls-1" width="24" height="24"/><path class="cls-2" d="M12,19.66A7.66,7.66,0,1,1,19.66,12,7.66,7.66,0,0,1,12,19.66Zm0-14.3A6.64,6.64,0,1,0,18.64,12,6.65,6.65,0,0,0,12,5.36Z"/><rect class="cls-2" x="9.93" y="8.79" width="0.9" height="1.76" rx="0.22"/><rect class="cls-2" x="13.17" y="8.79" width="0.9" height="1.76" rx="0.22"/><path class="cls-2" d="M12,16.08a3.75,3.75,0,0,1-3.93-3.53.36.36,0,1,1,.71,0A3.05,3.05,0,0,0,12,15.37a3.05,3.05,0,0,0,3.22-2.82.36.36,0,1,1,.71,0A3.75,3.75,0,0,1,12,16.08Z"/></svg>