<svg version="1.1" id="Layer_1" xmlns="http://www.w3.org/2000/svg" xmlns:xlink="http://www.w3.org/1999/xlink" x="0px" y="0px"
	 width="100%" viewBox="0 0 175 168" enable-background="new 0 0 175 168" xml:space="preserve">
<path fill="rgb(212, 236, 245)" opacity="1.000000" stroke="none" 
	d="
M167.999390,100.000000 
	C167.999359,109.496422 168.254288,118.501663 167.943481,127.487335 
	C167.384949,143.635620 153.648819,157.687027 137.517273,157.897171 
	C109.366585,158.263870 81.207672,158.002823 53.052212,157.997986 
	C38.378899,157.995453 24.639975,146.346207 21.959900,131.917938 
	C21.194286,127.796234 20.987324,123.704361 20.990700,119.552078 
	C21.010477,95.228439 20.922461,70.904419 21.031847,46.581257 
	C21.090439,33.552452 26.414675,23.161375 37.502880,16.030197 
	C43.260029,12.327590 49.880665,11.142022 56.493595,11.087193 
	C82.148293,10.874483 107.806572,10.877931 133.462021,11.039584 
	C153.832169,11.167936 168.683548,26.504086 168.110229,46.024658 
	C167.587143,63.835495 167.999390,81.673798 167.999390,100.000000 
z"/>
<path fill="rgb(118, 163, 205)" opacity="1.000000" stroke="none" 
	d="
M61.195778,113.764236 
	C58.093853,109.965546 55.702625,106.902634 50.015865,106.446922 
	C42.342010,105.831963 39.838455,94.388748 45.959522,88.816277 
	C49.340282,85.738518 50.603687,82.390488 51.010723,78.167145 
	C52.719582,60.436447 69.906395,43.405937 87.614677,40.972992 
	C114.193436,37.321335 134.854553,55.620403 138.432404,77.313850 
	C139.194748,81.936111 139.595047,85.958809 143.996338,89.173279 
	C147.442505,91.690178 148.025543,96.272888 146.126709,100.599586 
	C144.275497,104.817780 141.260406,107.268425 136.476608,106.991920 
	C134.532684,106.879562 133.055038,107.176727 131.866409,109.074707 
	C116.798897,133.134430 80.830215,136.573074 61.195778,113.764236 
z"/>
<path fill="rgb(212, 236, 245)" opacity="1.000000" stroke="none" 
	d="
M94.105957,122.987526 
	C80.805222,121.983025 70.467476,116.574242 63.064980,105.798492 
	C61.574738,103.629158 61.164471,101.912491 62.665386,99.528862 
	C65.165688,95.558098 66.316490,90.980324 67.550995,86.499550 
	C68.961533,81.379852 67.741768,80.209793 62.351723,81.146126 
	C56.429546,82.174896 56.141808,81.835129 57.865170,75.848259 
	C62.848400,58.536774 77.271622,47.027664 94.099182,46.935081 
	C111.718040,46.838146 126.160927,57.541447 131.282227,74.528580 
	C131.661392,75.786217 131.866867,77.104874 132.056564,78.409195 
	C132.468765,81.243355 131.672592,82.639328 128.509460,81.444122 
	C127.447258,81.042770 126.192818,81.180260 125.083481,80.868080 
	C121.140663,79.758514 120.727684,81.675568 121.509560,84.829964 
	C122.711105,89.677505 123.859756,94.586197 126.502060,98.859100 
	C128.278061,101.731117 127.936485,103.945831 126.031761,106.518051 
	C118.181297,117.119591 107.681252,122.534409 94.105957,122.987526 
z"/>
<path fill="rgb(212, 236, 245)" opacity="1.000000" stroke="none" 
	d="
M132.945786,102.202499 
	C128.501328,97.799431 127.207817,92.269020 125.492279,86.941414 
	C124.922577,85.172226 124.856956,84.041779 127.424126,84.621986 
	C132.325012,85.729630 136.987320,87.385452 140.858337,90.610451 
	C144.265961,93.449379 144.692505,97.041565 142.152298,100.731087 
	C139.798798,104.149452 136.781219,104.883347 132.945786,102.202499 
z"/>
<path fill="rgb(212, 236, 245)" opacity="1.000000" stroke="none" 
	d="
M60.282387,97.092392 
	C59.213818,98.616669 58.445507,99.914612 57.461685,101.020905 
	C54.756889,104.062393 51.732529,104.907555 48.409218,101.928413 
	C45.542809,99.358841 44.991951,94.863869 47.407833,92.073097 
	C51.055946,87.858894 56.094894,86.132271 61.335392,85.002647 
	C63.667347,84.499992 64.361557,85.772087 63.626026,87.897980 
	C62.599365,90.865311 61.533440,93.819054 60.282387,97.092392 
z"/>
<path fill="rgb(118, 163, 205)" opacity="1.000000" stroke="none" 
	d="
M73.541092,98.134399 
	C72.657005,96.291275 72.079460,94.786148 71.961426,93.068214 
	C71.762192,90.168312 72.703209,88.887589 75.849510,88.858040 
	C87.779007,88.746017 99.705521,88.345825 111.634918,88.180786 
	C117.612076,88.098099 118.519691,89.558311 117.102173,95.469711 
	C116.529808,97.856583 115.307510,99.778374 113.729286,101.443329 
	C103.505791,112.228645 82.282921,110.613846 73.541092,98.134399 
z"/>
<path fill="rgb(118, 163, 205)" opacity="1.000000" stroke="none" 
	d="
M76.319931,75.366211 
	C82.815468,71.197731 84.382919,71.706390 76.592155,67.232338 
	C75.213348,66.440514 72.767464,65.643265 73.672546,63.900646 
	C74.803268,61.723606 76.867325,63.533329 78.364502,64.290169 
	C80.875282,65.559395 83.254791,67.086037 85.747650,68.393562 
	C88.987839,70.093094 88.351700,71.784119 85.805252,73.451477 
	C83.172318,75.175468 80.522774,76.884216 77.790840,78.442444 
	C76.488884,79.185043 74.765022,81.123604 73.537971,79.115326 
	C72.382233,77.223770 74.619133,76.395157 76.319931,75.366211 
z"/>
<path fill="rgb(118, 163, 205)" opacity="1.000000" stroke="none" 
	d="
M115.680618,77.475174 
	C115.988686,80.252159 114.694992,80.305809 113.071327,79.324020 
	C109.674637,77.270126 106.358963,75.082764 102.983116,72.993683 
	C100.708160,71.585869 100.953697,70.060310 102.956963,68.834984 
	C106.199738,66.851486 109.561295,65.056297 112.924454,63.279537 
	C113.802063,62.815891 115.020142,62.710217 115.644608,63.660698 
	C116.296745,64.653313 115.450233,65.333771 114.776146,66.150307 
	C112.810326,68.531555 107.293228,67.952095 108.149246,71.713905 
	C108.662201,73.968079 112.935677,75.366531 115.680618,77.475174 
z"/>
<path fill="rgb(212, 236, 245)" opacity="1.000000" stroke="none" 
	d="
M88.032112,93.009827 
	C95.354454,93.009888 102.182243,92.970573 109.008743,93.046844 
	C110.216263,93.060333 111.955078,92.281265 112.532295,93.901817 
	C112.993927,95.197845 111.941902,96.461647 111.054932,97.418304 
	C105.284630,103.641922 97.970596,104.873718 90.033218,103.531059 
	C85.357605,102.740150 81.089760,100.961586 78.172104,96.890190 
	C76.406448,94.426331 76.491112,92.923660 80.043907,93.001625 
	C82.540504,93.056419 85.039307,93.010674 88.032112,93.009827 
z"/>
</svg>