<svg id="圖層_1" data-name="圖層 1" xmlns="http://www.w3.org/2000/svg" viewBox="0 0 24 24"><defs><style>.cls-1{fill:#fff;}.cls-2{fill:#727171;}</style></defs><rect class="cls-1" width="24" height="24"/><path class="cls-2" d="M12,19.66a7.67,7.67,0,0,1-6.71-4,.51.51,0,0,1,.89-.49,6.65,6.65,0,0,0,11.62,0,.51.51,0,1,1,.89.5A7.68,7.68,0,0,1,12,19.66Z"/><path class="cls-2" d="M19.15,12.33a.51.51,0,0,1-.51-.5,6.64,6.64,0,0,0-13.28,0,.51.51,0,0,1-.51.5h0a.51.51,0,0,1-.5-.52,7.66,7.66,0,0,1,15.32,0,.51.51,0,0,1-.5.52Z"/><path class="cls-2" d="M12,16.08c-2.17,0-3.93-1.25-3.93-2.8a2.17,2.17,0,0,1,0-.26.38.38,0,0,1,.36-.32l7.11,0h0a.36.36,0,0,1,.35.31c0,.1,0,.21,0,.31C15.93,14.83,14.17,16.08,12,16.08ZM8.79,13.42c.11,1.09,1.51,1.95,3.21,1.95s3.13-.88,3.21-2Z"/><path class="cls-2" d="M8.51,11.15A.27.27,0,0,1,8.29,11a.27.27,0,0,1,.08-.36l1.72-1.08L8.38,8.64a.27.27,0,0,1-.1-.35.26.26,0,0,1,.35-.09l2.09,1.16a.23.23,0,0,1,.13.21.29.29,0,0,1-.12.23L8.64,11.11A.33.33,0,0,1,8.51,11.15Z"/><path class="cls-2" d="M4.68,15.84a1.69,1.69,0,0,1-.8-.22A1.85,1.85,0,0,1,3,14.37a1.74,1.74,0,0,1,.46-1.61,4.1,4.1,0,0,1,1.46-.92,9.18,9.18,0,0,1,1.5-.45l.14,0L7,11.29a.25.25,0,0,1,.17,0,.25.25,0,0,1,.2.3h0c-.1.48-.21.89-.32,1.27a6.49,6.49,0,0,1-1,2.21,1.87,1.87,0,0,1-1.17.76Zm2.14-4-.19,0-.11,0a9.41,9.41,0,0,0-1.41.43,3.66,3.66,0,0,0-1.28.79,1.24,1.24,0,0,0-.33,1.14,1.33,1.33,0,0,0,.63.92,1.09,1.09,0,0,0,.68.15,1.41,1.41,0,0,0,.85-.58,5.79,5.79,0,0,0,.93-2C6.67,12.44,6.74,12.16,6.82,11.85Z"/><path class="cls-2" d="M15.49,11.15a.33.33,0,0,1-.13,0L13.27,9.8a.29.29,0,0,1-.12-.23.23.23,0,0,1,.13-.21L15.37,8.2a.26.26,0,0,1,.35.09.27.27,0,0,1-.1.35l-1.71.95,1.72,1.08a.27.27,0,0,1,.08.36A.27.27,0,0,1,15.49,11.15Z"/><path class="cls-2" d="M18.4,15.44a.23.23,0,0,1-.17-.07,2.87,2.87,0,0,1-.29-.31,6.49,6.49,0,0,1-1-2.21c-.11-.38-.22-.79-.32-1.27h0a.25.25,0,0,1,.2-.3.25.25,0,0,1,.17,0l.47.08.14,0a9.18,9.18,0,0,1,1.5.45l.17.08a.25.25,0,0,1-.2.46l-.16-.06a9.2,9.2,0,0,0-1.42-.43l-.1,0-.19,0c.08.31.15.59.23.85a5.79,5.79,0,0,0,.93,2,2,2,0,0,0,.24.26.25.25,0,0,1,0,.36A.27.27,0,0,1,18.4,15.44Z"/><path class="cls-2" d="M19.32,15.84l-.21,0a1.66,1.66,0,0,1-.88-.45.25.25,0,0,1,.35-.37,1.21,1.21,0,0,0,.61.32,1.15,1.15,0,0,0,.68-.15,1.33,1.33,0,0,0,.63-.92,1.24,1.24,0,0,0-.33-1.14,3.29,3.29,0,0,0-1.12-.73.24.24,0,0,1-.13-.33.25.25,0,0,1,.33-.14,3.8,3.8,0,0,1,1.29.85A1.74,1.74,0,0,1,21,14.37a1.85,1.85,0,0,1-.88,1.25A1.69,1.69,0,0,1,19.32,15.84Z"/></svg>