<svg version="1.1" id="Layer_1" xmlns="http://www.w3.org/2000/svg" xmlns:xlink="http://www.w3.org/1999/xlink" x="0px" y="0px"
	 width="100%" viewBox="0 0 167 163" enable-background="new 0 0 167 163" xml:space="preserve">
<path fill="rgb(212, 236, 245)" opacity="1.000000" stroke="none" 
	d="
M131.386505,11.282301 
	C146.260574,13.877228 155.046341,22.520279 159.277908,36.314171 
	C159.938583,38.467827 159.989960,40.556362 159.990997,42.703823 
	C160.004288,70.201195 159.712051,97.702789 160.114090,125.194283 
	C160.334534,140.268051 147.288422,157.797485 127.961861,157.945267 
	C100.299446,158.156799 72.633682,158.102097 44.970398,157.958313 
	C29.836697,157.879654 16.172562,145.146545 13.888745,130.116028 
	C12.273389,119.484840 13.210127,108.862488 13.063863,98.242752 
	C12.827495,81.080978 12.906063,63.912830 13.040504,46.748852 
	C13.106611,38.309200 15.022640,30.475275 20.559700,23.604055 
	C26.811729,15.845590 34.940060,11.320977 44.482990,11.176403 
	C73.303955,10.739770 102.136902,11.093973 131.386505,11.282301 
z"/>
<path fill="rgb(118, 163, 205)" opacity="1.000000" stroke="none" 
	d="
M56.387852,115.613037 
	C39.936447,96.849388 38.865479,75.700684 53.189793,57.229641 
	C71.624588,33.458176 109.854233,36.617249 124.440651,63.117386 
	C134.748184,81.843788 130.641998,104.467049 114.511940,117.820343 
	C98.148689,131.366684 75.991310,131.303650 59.027824,117.667793 
	C58.250473,117.042915 57.438015,116.461716 56.387852,115.613037 
z"/>
<path fill="rgb(212, 236, 245)" opacity="1.000000" stroke="none" 
	d="
M50.234146,91.311935 
	C48.791069,69.366531 58.187267,54.487061 76.631203,48.906967 
	C93.671852,43.751434 113.578362,52.940548 120.567764,69.188698 
	C128.291336,87.143562 121.648689,107.483803 105.084930,116.598190 
	C82.583389,128.979904 56.869804,117.300827 50.234146,91.311935 
z"/>
<path fill="rgb(118, 163, 205)" opacity="1.000000" stroke="none" 
	d="
M95.017647,106.324921 
	C84.235382,109.429626 75.302391,107.285583 68.263336,98.740822 
	C67.634651,97.977654 67.120369,97.104156 66.648621,96.230270 
	C61.604668,86.886658 63.307270,83.957184 73.675087,83.897202 
	C83.306999,83.841476 92.932457,84.079605 102.567833,83.252457 
	C108.710220,82.725159 110.033325,84.604019 108.828598,90.671844 
	C107.304123,98.350136 102.454018,103.250343 95.017647,106.324921 
z"/>
<path fill="rgb(118, 163, 205)" opacity="1.000000" stroke="none" 
	d="
M93.029572,72.776550 
	C93.055893,71.029099 93.017685,69.706795 93.131157,68.397644 
	C93.243500,67.101486 94.023460,66.297180 95.338257,66.139496 
	C97.261948,65.908783 98.879761,66.639374 98.748619,68.666672 
	C98.572342,71.391724 100.560051,75.016525 96.932243,76.591675 
	C94.411522,77.686119 92.943260,75.960632 93.029572,72.776550 
z"/>
<path fill="rgb(118, 163, 205)" opacity="1.000000" stroke="none" 
	d="
M79.925735,67.537071 
	C80.044945,69.945686 80.091591,71.937752 80.058640,73.928497 
	C80.023933,76.025146 78.665443,77.398949 76.884270,76.542206 
	C73.288261,74.812515 75.036652,71.218369 75.209679,68.562607 
	C75.397255,65.683617 77.542206,65.310310 79.925735,67.537071 
z"/>
<path fill="rgb(212, 236, 245)" opacity="1.000000" stroke="none" 
	d="
M92.825485,102.215927 
	C81.852951,104.688324 72.718674,100.460304 69.739426,92.069466 
	C68.634094,88.956375 69.235306,87.912682 72.620026,87.962791 
	C81.935638,88.100700 91.257599,88.130302 100.571266,87.931572 
	C104.654968,87.844429 104.743523,90.045761 103.577240,92.636803 
	C101.524315,97.197632 98.087372,100.495125 92.825485,102.215927 
z"/>
</svg>