<svg id="圖層_1" data-name="圖層 1" xmlns="http://www.w3.org/2000/svg" viewBox="0 0 24 24"><defs><style>.cls-1{fill:#fff;}.cls-2{fill:#727171;}</style></defs><rect class="cls-1" width="24" height="24"/><path class="cls-2" d="M12,19.66A7.66,7.66,0,1,1,19.66,12,7.67,7.67,0,0,1,12,19.66ZM12,5.37A6.63,6.63,0,1,0,18.63,12,6.63,6.63,0,0,0,12,5.37Z"/><path class="cls-2" d="M12,17.24A3.75,3.75,0,0,1,8.07,13.7c0-.1,0-.21,0-.31a.37.37,0,0,1,.35-.33L15.55,13h0a.37.37,0,0,1,.36.32c0,.12,0,.25,0,.37A3.75,3.75,0,0,1,12,17.24ZM8.79,13.78A3,3,0,0,0,12,16.52a3,3,0,0,0,3.21-2.79Z"/><path class="cls-2" d="M9.65,11.79a.24.24,0,0,1-.14,0,5,5,0,0,1-.46-.34l-.28-.22c-.14-.11-.28-.21-.41-.33a2.18,2.18,0,0,1-.84-1.27,1.33,1.33,0,0,1,.33-1.05,1.19,1.19,0,0,1,1-.4,1.39,1.39,0,0,1,.83.36,1.39,1.39,0,0,1,.83-.36,1.21,1.21,0,0,1,1,.4,1.3,1.3,0,0,1,.33,1.05h0a2.18,2.18,0,0,1-.84,1.27,4.82,4.82,0,0,1-.44.35l-.24.19a5.07,5.07,0,0,1-.46.35A.3.3,0,0,1,9.65,11.79Zm-.9-3.15a.71.71,0,0,0-.52.23A.77.77,0,0,0,8,9.5a1.7,1.7,0,0,0,.66,1l.39.31.29.23.28.22L9.94,11l.22-.18.45-.36a1.73,1.73,0,0,0,.67-1h0a.81.81,0,0,0-.21-.63.7.7,0,0,0-.56-.23A.86.86,0,0,0,9.86,9a.25.25,0,0,1-.21.11h0A.26.26,0,0,1,9.44,9a.89.89,0,0,0-.65-.38Z"/><path class="cls-2" d="M14.35,11.79a.24.24,0,0,1-.14,0,4.1,4.1,0,0,1-.47-.35l-.21-.16c-.19-.15-.34-.26-.47-.38a2.18,2.18,0,0,1-.84-1.27,1.3,1.3,0,0,1,.33-1.05,1.15,1.15,0,0,1,1-.4,1.39,1.39,0,0,1,.83.36,1.39,1.39,0,0,1,.83-.36,1.22,1.22,0,0,1,1,.4,1.31,1.31,0,0,1,.34,1.05h0a2.23,2.23,0,0,1-.84,1.27c-.15.13-.29.24-.44.35l-.25.19a5.07,5.07,0,0,1-.46.35A.24.24,0,0,1,14.35,11.79Zm-.91-3.15a.68.68,0,0,0-.51.23.81.81,0,0,0-.21.63,1.73,1.73,0,0,0,.67,1c.13.12.27.22.4.33l.27.2.29.23.29-.22.21-.18c.18-.13.32-.24.46-.36a1.7,1.7,0,0,0,.66-1,.8.8,0,0,0-.2-.63.69.69,0,0,0-.56-.23.86.86,0,0,0-.65.38.26.26,0,0,1-.42,0,.86.86,0,0,0-.65-.38Zm2.79.9Z"/></svg>