<svg version="1.1" id="Layer_1" xmlns="http://www.w3.org/2000/svg"
	xmlns:xlink="http://www.w3.org/1999/xlink" x="0px" y="0px"
	width="100%" viewBox="0 0 159 167" enable-background="new 0 0 159 167" xml:space="preserve">
<path fill="rgb(212, 236, 245)" opacity="1.000000" stroke="none" 
	d="
M151.999390,96.000000 
	C151.999390,107.162758 152.001358,117.825508 151.998932,128.488266 
	C151.994644,147.360382 137.478424,161.973297 118.648125,161.992584 
	C92.324478,162.019562 66.000771,162.001099 39.677094,161.998825 
	C19.721094,161.997101 5.003645,147.348648 5.001174,127.483040 
	C4.997941,101.492569 4.997912,75.502106 5.001183,49.511635 
	C5.003683,29.651299 19.725531,15.002833 39.682442,15.000963 
	C65.339699,14.998560 91.003098,15.345812 116.652252,14.890020 
	C136.818832,14.531655 153.107346,30.258623 152.139709,50.523060 
	C151.425339,65.483498 151.999390,80.505455 151.999390,96.000000 
M53.734455,124.826302 
	C61.257343,129.910736 69.486557,131.898544 78.628624,132.233429 
	C107.474205,133.290085 130.758591,102.971619 119.966331,73.685593 
	C114.147621,57.895874 102.703278,47.884235 86.152428,45.291714 
	C69.465607,42.677887 55.127544,47.764488 43.988667,61.294743 
	C29.972662,78.319809 31.042543,109.106865 53.734455,124.826302 
z"/>
<path fill="#7F94AF" opacity="1.000000" stroke="none" 
	d="
M53.436436,124.620697 
	C31.042543,109.106865 29.972662,78.319809 43.988667,61.294743 
	C55.127544,47.764488 69.465607,42.677887 86.152428,45.291714 
	C102.703278,47.884235 114.147621,57.895874 119.966331,73.685593 
	C130.758591,102.971619 107.474205,133.290085 78.628624,132.233429 
	C69.486557,131.898544 61.257343,129.910736 53.436436,124.620697 
M84.018379,125.931778 
	C91.971893,124.641090 98.908646,121.213913 104.708061,115.668083 
	C115.824799,105.037468 119.316765,88.414093 113.560532,74.261177 
	C107.773415,60.032299 93.970787,50.865345 78.311180,50.941486 
	C63.220802,51.014851 52.023663,58.172825 45.183327,71.163208 
	C38.400917,84.043571 39.129601,97.345879 47.386532,109.512627 
	C55.865929,122.007187 68.098457,127.231895 84.018379,125.931778 
z"/>
<path fill="rgb(212, 236, 245)" opacity="1.000000" stroke="none" 
	d="
M83.566757,125.959930 
	C68.098457,127.231895 55.865929,122.007187 47.386532,109.512627 
	C39.129601,97.345879 38.400917,84.043571 45.183327,71.163208 
	C52.023663,58.172825 63.220802,51.014851 78.311180,50.941486 
	C93.970787,50.865345 107.773415,60.032299 113.560532,74.261177 
	C119.316765,88.414093 115.824799,105.037468 104.708061,115.668083 
	C98.908646,121.213913 91.971893,124.641090 83.566757,125.959930 
M60.833302,94.137199 
	C56.015537,94.659874 55.009121,96.389091 56.225548,102.054230 
	C58.189232,111.199486 66.848564,118.072891 77.382164,118.847473 
	C89.351402,119.727608 100.733955,110.304939 101.121910,99.488350 
	C101.269119,95.384308 99.969276,93.877724 95.745270,93.973259 
	C84.422661,94.229355 73.091522,94.108086 60.833302,94.137199 
M74.121574,67.179543 
	C71.760704,67.112663 69.400070,67.035484 67.038879,66.983192 
	C65.825020,66.956306 64.421082,67.371292 63.429779,66.899734 
	C59.864822,65.203918 56.362377,65.698708 54.788643,68.965439 
	C53.550995,71.534531 53.089031,75.631233 54.303299,78.023773 
	C59.042873,87.362442 66.298210,88.502106 73.611961,81.400803 
	C77.393417,77.729195 80.044456,73.054565 74.121574,67.179543 
M81.830475,79.357719 
	C84.323563,81.529518 86.652283,83.949738 89.385727,85.758255 
	C90.580734,86.548897 93.093689,86.797295 94.158119,86.061783 
	C97.261635,83.917282 100.824905,81.625740 102.499817,78.481850 
	C103.852776,75.942284 103.659073,71.670425 102.445427,68.919785 
	C101.156189,65.997826 97.636841,65.222527 94.191162,66.813332 
	C93.133118,67.301819 91.514061,67.580322 90.562851,67.114975 
	C87.093239,65.417580 83.944130,65.678261 81.577698,68.617493 
	C79.052155,71.754341 79.180115,75.331566 81.830475,79.357719 
z"/>
<path fill="rgb(118, 163, 205)" opacity="1.000000" stroke="none" 
	d="
M61.298538,94.136955 
	C73.091522,94.108086 84.422661,94.229355 95.745270,93.973259 
	C99.969276,93.877724 101.269119,95.384308 101.121910,99.488350 
	C100.733955,110.304939 89.351402,119.727608 77.382164,118.847473 
	C66.848564,118.072891 58.189232,111.199486 56.225548,102.054230 
	C55.009121,96.389091 56.015537,94.659874 61.298538,94.136955 
M86.515663,112.347664 
	C93.840919,108.544968 96.378159,104.878822 95.444977,99.185699 
	C84.117477,99.185699 72.756973,99.185699 60.673664,99.185699 
	C61.266872,101.328194 61.485687,103.104912 62.226234,104.627953 
	C66.108490,112.612328 75.512611,115.779388 86.515663,112.347664 
z"/>
<path fill="rgb(118, 163, 205)" opacity="1.000000" stroke="none" 
	d="
M74.435959,67.394028 
	C80.044456,73.054565 77.393417,77.729195 73.611961,81.400803 
	C66.298210,88.502106 59.042873,87.362442 54.303299,78.023773 
	C53.089031,75.631233 53.550995,71.534531 54.788643,68.965439 
	C56.362377,65.698708 59.864822,65.203918 63.429779,66.899734 
	C64.421082,67.371292 65.825020,66.956306 67.038879,66.983192 
	C69.400070,67.035484 71.760704,67.112663 74.435959,67.394028 
M63.378159,70.995613 
	C61.194813,71.219810 59.011467,71.444008 56.828125,71.668205 
	C57.298489,73.726128 57.364273,76.011887 58.357368,77.775444 
	C59.279636,79.413239 60.998455,80.953690 62.726635,81.678627 
	C64.187714,82.291534 66.478645,82.234337 67.837761,81.469940 
	C69.787796,80.373207 71.630424,78.598824 72.747871,76.667618 
	C73.590088,75.212044 73.983192,72.509377 73.167320,71.375992 
	C72.439171,70.364456 69.779396,70.557594 67.974197,70.568909 
	C66.649704,70.577209 65.328758,71.151154 63.378159,70.995613 
z"/>
<path fill="rgb(118, 163, 205)" opacity="1.000000" stroke="none" 
	d="
M81.578583,79.066360 
	C79.180115,75.331566 79.052155,71.754341 81.577698,68.617493 
	C83.944130,65.678261 87.093239,65.417580 90.562851,67.114975 
	C91.514061,67.580322 93.133118,67.301819 94.191162,66.813332 
	C97.636841,65.222527 101.156189,65.997826 102.445427,68.919785 
	C103.659073,71.670425 103.852776,75.942284 102.499817,78.481850 
	C100.824905,81.625740 97.261635,83.917282 94.158119,86.061783 
	C93.093689,86.797295 90.580734,86.548897 89.385727,85.758255 
	C86.652283,83.949738 84.323563,81.529518 81.578583,79.066360 
M93.728035,82.481956 
	C95.865509,80.434700 98.317673,78.611214 100.002411,76.242012 
	C100.797142,75.124420 100.755180,72.452255 99.926941,71.415321 
	C99.129944,70.417496 96.841850,70.461258 95.187012,70.335571 
	C93.083755,70.175812 90.955582,70.240799 88.843613,70.333458 
	C87.294601,70.401413 85.403290,70.195251 84.319763,70.996895 
	C83.430115,71.655106 82.770149,74.402039 83.272995,74.873039 
	C86.338997,77.744858 89.766411,80.230820 93.728035,82.481956 
z"/>
<path fill="rgb(212, 236, 245)" opacity="1.000000" stroke="none" 
	d="
M86.161446,112.522812 
	C75.512611,115.779388 66.108490,112.612328 62.226234,104.627953 
	C61.485687,103.104912 61.266872,101.328194 60.673664,99.185699 
	C72.756973,99.185699 84.117477,99.185699 95.444977,99.185699 
	C96.378159,104.878822 93.840919,108.544968 86.161446,112.522812 
z"/>
<path fill="rgb(212, 236, 245)" opacity="1.000000" stroke="none" 
	d="
M63.692196,71.234314 
	C65.328758,71.151154 66.649704,70.577209 67.974197,70.568909 
	C69.779396,70.557594 72.439171,70.364456 73.167320,71.375992 
	C73.983192,72.509377 73.590088,75.212044 72.747871,76.667618 
	C71.630424,78.598824 69.787796,80.373207 67.837761,81.469940 
	C66.478645,82.234337 64.187714,82.291534 62.726635,81.678627 
	C60.998455,80.953690 59.279636,79.413239 58.357368,77.775444 
	C57.364273,76.011887 57.298489,73.726128 56.828125,71.668198 
	C59.011467,71.444008 61.194813,71.219810 63.692196,71.234314 
z"/>
<path fill="rgb(212, 236, 245)" opacity="1.000000" stroke="none" 
	d="
M93.400658,82.663719 
	C89.766411,80.230820 86.338997,77.744858 83.272995,74.873039 
	C82.770149,74.402039 83.430115,71.655106 84.319763,70.996895 
	C85.403290,70.195251 87.294601,70.401413 88.843613,70.333458 
	C90.955582,70.240799 93.083755,70.175812 95.187012,70.335571 
	C96.841850,70.461258 99.129944,70.417496 99.926941,71.415321 
	C100.755180,72.452255 100.797142,75.124420 100.002411,76.242012 
	C98.317673,78.611214 95.865509,80.434700 93.400658,82.663719 
z"/>
</svg>