<svg id="圖層_1" data-name="圖層 1" xmlns="http://www.w3.org/2000/svg" viewBox="0 0 24 24"><defs><style>.cls-1{fill:#fff;}.cls-2{fill:#727171;}</style></defs><rect class="cls-1" width="24" height="24"/><path class="cls-2" d="M12,19.66A7.66,7.66,0,1,1,19.66,12,7.67,7.67,0,0,1,12,19.66Zm0-14.3A6.64,6.64,0,1,0,18.64,12,6.65,6.65,0,0,0,12,5.36Z"/><rect class="cls-2" x="9.93" y="8.15" width="0.9" height="1.76" rx="0.22"/><rect class="cls-2" x="13.17" y="8.15" width="0.9" height="1.76" rx="0.22"/><path class="cls-2" d="M10.26,17.06a.4.4,0,0,1-.15,0,.35.35,0,0,1-.17-.48c0-.06,3-6.42,8-5a.36.36,0,0,1,.25.44.37.37,0,0,1-.44.25c-4.4-1.21-7.12,4.58-7.14,4.64A.36.36,0,0,1,10.26,17.06Z"/></svg>