<svg version="1.1" id="Layer_1" xmlns="http://www.w3.org/2000/svg"
	xmlns:xlink="http://www.w3.org/1999/xlink" x="0px" y="0px"
	width="100%" viewBox="0 0 159 159" enable-background="new 0 0 159 159" xml:space="preserve">
<path fill="rgb(212, 236, 245)" opacity="1.000000" stroke="none" 
	d="
M5.000325,108.999809 
	C5.000330,87.508720 4.986971,66.517563 5.004684,45.526432 
	C5.018193,29.517780 14.633589,16.718716 30.039032,12.571450 
	C33.672180,11.593378 37.454170,10.970691 41.305275,10.977595 
	C66.128059,11.022097 90.951622,10.887856 115.773621,11.033671 
	C138.228897,11.165584 152.290985,25.555815 152.062210,47.502827 
	C151.794800,73.155884 151.643463,98.820518 152.123138,124.467392 
	C152.450455,141.968903 136.474136,158.725769 118.280342,158.199646 
	C91.480736,157.424683 64.639366,157.768997 37.821083,158.085312 
	C21.475163,158.278091 5.334699,144.347580 5.014341,125.492538 
	C4.923790,120.163071 5.000387,114.830765 5.000325,108.999809 
z"/>
<path fill="rgb(118, 163, 205)" opacity="1.000000" stroke="none" 
	d="
M93.528267,44.362900 
	C112.404144,51.451332 124.848984,72.192184 121.467072,90.484612 
	C117.152512,113.821602 100.158249,128.118408 76.947418,127.937775 
	C57.346893,127.785233 39.604267,112.054054 35.979919,92.162888 
	C31.514334,67.654808 50.058872,42.119331 78.565804,41.506958 
	C83.452034,41.401993 88.504967,42.207066 93.528267,44.362900 
z"/>
<path fill="rgb(212, 236, 245)" opacity="1.000000" stroke="none" 
	d="
M86.822632,48.926540 
	C102.573296,53.397614 112.546242,63.212868 114.848183,79.079224 
	C117.149658,94.942467 111.448303,107.954346 97.355881,116.420700 
	C85.230721,123.705185 72.738869,123.759140 60.441376,116.808250 
	C48.661430,110.149895 42.623531,99.826813 41.849796,86.326706 
	C40.487679,62.560513 63.282257,43.281792 86.822632,48.926540 
z"/>
<path fill="rgb(118, 163, 205)" opacity="1.000000" stroke="none" 
	d="
M69.205643,106.050980 
	C61.899467,102.910645 57.768631,97.661194 56.352928,90.261551 
	C56.027870,88.562523 55.909637,86.662033 58.012699,86.167511 
	C60.238850,85.644051 60.605034,87.371689 60.977928,89.169510 
	C62.894382,98.409111 69.006226,103.164658 78.727844,103.138474 
	C88.052246,103.113358 94.242722,98.218269 96.070915,89.337440 
	C96.419647,87.643417 96.588814,85.701950 98.902092,86.150879 
	C101.379089,86.631577 101.031403,88.801346 100.771591,90.601906 
	C99.187141,101.582710 86.441475,109.978882 74.820511,107.687531 
	C73.040428,107.336555 71.316177,106.702408 69.205643,106.050980 
z"/>
<path fill="rgb(118, 163, 205)" opacity="1.000000" stroke="none" 
	d="
M69.068497,76.941780 
	C65.271973,74.344284 66.948372,70.891060 67.443199,67.921112 
	C67.690987,66.433929 70.017311,66.575760 71.282959,67.466972 
	C73.247643,68.850433 71.902924,75.586456 69.068497,76.941780 
z"/>
<path fill="rgb(118, 163, 205)" opacity="1.000000" stroke="none" 
	d="
M86.387466,76.637878 
	C84.146782,74.112457 85.042625,71.391464 85.129356,68.870323 
	C85.212685,66.448036 87.582718,66.410698 88.788338,67.253845 
	C91.349556,69.045013 89.782219,72.033081 90.014580,74.494545 
	C90.235016,76.829659 88.650124,77.148643 86.387466,76.637878 
z"/>
</svg>