<?xml version="1.0" standalone="no"?>
<!DOCTYPE svg PUBLIC "-//W3C//DTD SVG 20010904//EN"
 "http://www.w3.org/TR/2001/REC-SVG-20010904/DTD/svg10.dtd">
<svg version="1.0" xmlns="http://www.w3.org/2000/svg"
 width="623.000000pt" height="650.000000pt" viewBox="0 0 623.000000 650.000000"
 preserveAspectRatio="xMidYMid meet">
<metadata>
Created by potrace 1.16, written by Peter Selinger 2001-2019
</metadata>
<g transform="translate(0.000000,650.000000) scale(0.100000,-0.100000)" stroke="none">
<path d="M2870 4989 c-319 -34 -616 -175 -844 -403 -163 -163 -278 -351 -349
-571 -67 -208 -67 -209 -67 -1322 l0 -998 1008 3 c1114 3 1124 4 1318 67 428
140 759 467 899 889 73 220 69 136 72 1299 l4 1047 -978 -1 c-538 -1 -1016 -6
-1063 -10z m484 -975 c3 -9 6 -141 6 -295 l0 -279 308 -2 307 -3 0 -90 0 -90
-307 -3 -308 -2 0 -311 c0 -195 -4 -318 -10 -330 -9 -16 -22 -19 -90 -19 -68
0 -81 3 -90 19 -6 12 -10 135 -10 330 l0 311 -298 0 c-218 0 -301 3 -310 12
-12 12 -17 134 -6 162 5 14 42 16 310 16 l304 0 0 279 c0 154 3 286 6 295 5
13 23 16 94 16 71 0 89 -3 94 -16z"/>
</g>
</svg>
