<svg id="圖層_1" data-name="圖層 1" xmlns="http://www.w3.org/2000/svg" viewBox="0 0 141.73 141.73"><defs><style>.cls-1{fill:#9fa0a0;}</style></defs><path class="cls-1" d="M62.94,57.83H78.23v1.45q0,16.71,0,33.43a2,2,0,0,0,1,2,15.23,15.23,0,0,1,6.49,15.41A15.42,15.42,0,1,1,59.53,96.6a8.52,8.52,0,0,1,2.09-1.71A2.52,2.52,0,0,0,63,92.25c0-11,0-22,0-33Z"/><rect class="cls-1" x="83.32" y="34.57" width="17.05" height="5.22" rx="2.5"/><rect class="cls-1" x="83.32" y="43.97" width="17.05" height="5.22" rx="2.5"/><rect class="cls-1" x="83.32" y="53.37" width="17.05" height="5.22" rx="2.5"/><path class="cls-1" d="M70.6,139.63A32.74,32.74,0,0,1,54.23,78.54a3.5,3.5,0,0,1,3.51,6.06,25.74,25.74,0,1,0,25.73,0A3.5,3.5,0,0,1,87,78.54,32.74,32.74,0,0,1,70.6,139.63Z"/><path class="cls-1" d="M85.22,85.07a3.5,3.5,0,0,1-3.5-3.5V20.22a11.12,11.12,0,1,0-22.23,0V81.57a3.5,3.5,0,0,1-7,0V20.22a18.12,18.12,0,1,1,36.23,0V81.57A3.5,3.5,0,0,1,85.22,85.07Z"/><circle class="cls-1" cx="70.87" cy="106.63" r="19.84"/></svg>