<svg id="圖層_1" data-name="圖層 1" xmlns="http://www.w3.org/2000/svg" viewBox="0 0 141.73 141.73"><defs><style>.cls-1{fill:#9fa0a0;}</style></defs><path class="cls-1" d="M75.43,86.76c-14.87-13.38-33.81-14.5-46.88-.89a55.25,55.25,0,0,0,.3,11.77c2.06,15.15,12.72,28.45,25.16,35,15,7.83,31.48,3.7,44.2-7.41,10.92-9.53,15.67-24,15.08-39.1.11,0,.33-3.76-1.6-11-.65-2.41-13,4.82-14.26,5.88C92,85.7,82.59,93.2,75.43,86.76Z"/><path class="cls-1" d="M70.27,139.12a37.3,37.3,0,0,1-17.41-4.32C38.81,127.47,28.42,113,26.37,98a58.33,58.33,0,0,1-.31-12.3,2.48,2.48,0,0,1,.69-1.54c13.72-14.3,34-14,50.35.77h0c5.18,4.65,12.35-.36,18.69-5.87.1-.09,11.92-8.12,16.18-6.82a3.08,3.08,0,0,1,2.13,2.18c.1.38,2.08,7.89,1.69,11.59h0c.66,16.94-5,31.53-15.94,41.07C90.74,135,80.4,139.12,70.27,139.12ZM31,87a52.73,52.73,0,0,0,.35,10.34c1.83,13.47,11.19,26.45,23.84,33.06,13,6.82,28.52,4.17,41.39-7.07,9.78-8.53,14.83-21.72,14.24-37.12a2.39,2.39,0,0,1,.06-.66,34.53,34.53,0,0,0-1.18-8.23,55.78,55.78,0,0,0-10.62,5.53c-4.4,3.83-16.14,14.05-25.3,5.8h0C59.77,76,42.69,75.41,31,87Zm82.31-3.39a2.45,2.45,0,0,0-1.23.33A2.52,2.52,0,0,1,113.29,83.58Z"/><path class="cls-1" d="M70.28,140.13a38.29,38.29,0,0,1-17.88-4.44c-14.33-7.48-24.93-22.23-27-37.57C22.3,75.43,33.39,53.89,44,35.49A225.9,225.9,0,0,1,66.52,2.85,3.53,3.53,0,0,1,69.18,1.6a3.49,3.49,0,0,1,2.66,1.21c40.63,46.85,45.58,75.92,45,83.22.64,17.22-5.14,32.05-16.29,41.79C91.21,135.94,80.64,140.13,70.28,140.13Zm-1-129.58A229.31,229.31,0,0,0,50.09,39C40,56.39,29.53,76.67,32.32,97.17c1.79,13.17,10.94,25.85,23.32,32.32,12.66,6.61,27.71,4,40.27-7,9.54-8.32,14.47-21.23,13.89-36.32a3.6,3.6,0,0,1,.06-.81C109.89,83.37,109.25,57.73,69.26,10.55Zm40.95,73.88A2.9,2.9,0,0,0,110,85,3,3,0,0,1,110.21,84.43Zm3.09-1.85a3.47,3.47,0,0,0-2.14.73A3.5,3.5,0,0,1,113.3,82.58Z"/></svg>