<svg id="圖層_1" data-name="圖層 1" xmlns="http://www.w3.org/2000/svg" viewBox="0 0 141.73 141.73"><defs><style>.cls-1{fill:#9fa0a0;}</style></defs><path class="cls-1" d="M133.37,138.09a3.52,3.52,0,0,1-2.45-1L121.56,128,97.77,105.8A57.22,57.22,0,1,1,113.5,86.35a3.5,3.5,0,0,1-6.27-3.11,49.72,49.72,0,0,0,5.21-22.31A50.27,50.27,0,1,0,95.57,98.51a3.5,3.5,0,0,1,4.71,0l26.11,24.35,9.42,9.17a3.5,3.5,0,0,1,.06,4.95A3.44,3.44,0,0,1,133.37,138.09Z"/><path class="cls-1" d="M63.65,100.2A37.1,37.1,0,0,1,28.08,74.09,3.5,3.5,0,1,1,34.76,72,30.14,30.14,0,0,0,63.65,93.2a30.64,30.64,0,0,0,5.66-.52,3.5,3.5,0,0,1,1.29,6.88A37.52,37.52,0,0,1,63.65,100.2Z"/></svg>