<svg id="圖層_1" data-name="圖層 1" xmlns="http://www.w3.org/2000/svg" viewBox="0 0 141.73 141.73"><defs><style>.cls-1{fill:#9fa0a0;}</style></defs><path class="cls-1" d="M136.37,141.15a3.52,3.52,0,0,1-2.45-1l-9.81-9.56-25-23.35A59.72,59.72,0,1,1,115.4,87a3.5,3.5,0,0,1-6.27-3.11,52.4,52.4,0,0,0,5.47-23.46A52.87,52.87,0,1,0,96.86,100a3.5,3.5,0,0,1,4.72.06l27.36,25.51,9.87,9.61a3.5,3.5,0,0,1-2.44,6Z"/><path class="cls-1" d="M56,106.68A38.73,38.73,0,0,1,18.85,79.43a3.5,3.5,0,1,1,6.68-2.09A31.76,31.76,0,0,0,56,99.68a32.08,32.08,0,0,0,6-.55A3.5,3.5,0,0,1,63.22,106,39,39,0,0,1,56,106.68Z"/><path class="cls-1" d="M75.66,47.2a2,2,0,0,1-2-2,11.18,11.18,0,0,0-22.35,0,2,2,0,0,1-4,0,15.18,15.18,0,0,1,30.35,0A2,2,0,0,1,75.66,47.2Z"/><path class="cls-1" d="M77.19,51.53H47.77a11,11,0,0,1-11-11v-.84a2,2,0,0,1,4,0v.84a7,7,0,0,0,7,7H77.19a7,7,0,0,0,7-7v-.58a2,2,0,0,1,4,0v.58A11,11,0,0,1,77.19,51.53Z"/><path class="cls-1" d="M38.77,88.41a2,2,0,0,1-2-2v-.84a11,11,0,0,1,11-11H77.19a11,11,0,0,1,11,11v.59a2,2,0,0,1-4,0v-.59a7,7,0,0,0-7-7H47.77a7,7,0,0,0-7,7v.84A2,2,0,0,1,38.77,88.41Z"/><rect class="cls-1" x="45.54" y="49.53" width="33.88" height="18.82" rx="1.7"/><path class="cls-1" d="M77.72,70.35H47.25a3.72,3.72,0,0,1-3.71-3.71V51.23a3.71,3.71,0,0,1,3.71-3.7H77.72a3.7,3.7,0,0,1,3.7,3.7V66.64A3.71,3.71,0,0,1,77.72,70.35Zm-30.18-4H77.42V51.53H47.54Z"/><rect class="cls-1" x="45.54" y="54.04" width="33.88" height="32.37" rx="13.02"/><path class="cls-1" d="M66.4,88.41H58.57a15,15,0,0,1-15-15V67.06a15,15,0,0,1,15-15H66.4a15,15,0,0,1,15,15v6.33A15,15,0,0,1,66.4,88.41ZM58.57,56a11,11,0,0,0-11,11v6.33a11,11,0,0,0,11,11H66.4a11,11,0,0,0,11-11V67.06a11,11,0,0,0-11-11Z"/><path class="cls-1" d="M89.21,63.57H35.76a2,2,0,0,1,0-4H89.21a2,2,0,0,1,0,4Z"/><line class="cls-1" x1="52.7" y1="28.07" x2="56.32" y2="33.72"/><path class="cls-1" d="M56.32,35.72a2,2,0,0,1-1.69-.92L51,29.15A2,2,0,0,1,54.38,27L58,32.64a2,2,0,0,1-.6,2.77A2,2,0,0,1,56.32,35.72Z"/><line class="cls-1" x1="72.88" y1="28.07" x2="69.26" y2="33.72"/><path class="cls-1" d="M69.26,35.72a2,2,0,0,1-1.69-3.08L71.19,27a2,2,0,0,1,3.37,2.16L70.94,34.8A2,2,0,0,1,69.26,35.72Z"/></svg>