<svg id="圖層_1" data-name="圖層 1" xmlns="http://www.w3.org/2000/svg" viewBox="0 0 141.73 141.73"><defs><style>.cls-1{fill:#9fa0a0;}</style></defs><path class="cls-1" d="M100.18,133.49H30.75A27.41,27.41,0,0,1,3.37,106.1V38.22A27.41,27.41,0,0,1,30.75,10.83H85.22a3.5,3.5,0,1,1,0,7H30.75A20.4,20.4,0,0,0,10.37,38.22V106.1a20.4,20.4,0,0,0,20.38,20.39h69.43a20.4,20.4,0,0,0,20.39-20.39V67.91a3.5,3.5,0,0,1,7,0V106.1A27.41,27.41,0,0,1,100.18,133.49Z"/><path class="cls-1" d="M63.93,76S51.59,35.92,97.85,23.58V6.49l37,29.43-36.22,34V51S76.26,45.17,63.93,76Z"/><path class="cls-1" d="M63.93,78.51h-.11a2.5,2.5,0,0,1-2.28-1.76C61.32,76,56.32,59.3,65,43.56,70.76,33.24,81,25.89,95.35,21.68V6.49a2.5,2.5,0,0,1,4.06-2l37,29.43a2.51,2.51,0,0,1,.16,3.78l-36.22,34a2.5,2.5,0,0,1-4.21-1.82V53.11c-5.3-.52-20.49.29-29.9,23.83A2.5,2.5,0,0,1,63.93,78.51Zm36.42-66.84V23.58A2.51,2.51,0,0,1,98.5,26c-14,3.73-23.78,10.44-29,19.93-4.33,7.78-4.8,16-4.37,21.79,13.44-24.2,34-19.22,34.2-19.16A2.5,2.5,0,0,1,101.15,51V64.11l29.89-28Z"/></svg>