<svg id="圖層_1" data-name="圖層 1" xmlns="http://www.w3.org/2000/svg" viewBox="0 0 141.73 141.73"><defs><style>.cls-1{fill:#9fa0a0;}</style></defs><path class="cls-1" d="M56.09,63.29A25.67,25.67,0,1,1,81.75,37.62,25.7,25.7,0,0,1,56.09,63.29Zm0-44.33A18.67,18.67,0,1,0,74.75,37.62,18.69,18.69,0,0,0,56.09,19Z"/><path class="cls-1" d="M107.81,129.79a3.5,3.5,0,0,1-3.5-3.5v-9.2A28,28,0,0,0,76.37,89.15H35.81A28,28,0,0,0,7.87,117.09v6.84a3.5,3.5,0,0,1-7,0v-6.84A35,35,0,0,1,35.81,82.15H76.37a35,35,0,0,1,34.94,34.94v9.2A3.5,3.5,0,0,1,107.81,129.79Z"/><path class="cls-1" d="M93,62.86a3.5,3.5,0,0,1,0-7,18.67,18.67,0,1,0,0-37.33,3.5,3.5,0,1,1,0-7,25.67,25.67,0,1,1,0,51.33Z"/><path class="cls-1" d="M137.37,129.79a3.5,3.5,0,0,1-3.5-3.5v-9.2a28.18,28.18,0,0,0-18-26.1,3.5,3.5,0,0,1,2.51-6.53,35.19,35.19,0,0,1,22.49,32.63v9.2A3.5,3.5,0,0,1,137.37,129.79Z"/></svg>