<svg id="圖層_1" data-name="圖層 1" xmlns="http://www.w3.org/2000/svg" viewBox="0 0 141.73 141.73"><defs><style>.cls-1{fill:#fff;}.cls-2{fill:#e4b786;}</style></defs><path class="cls-1" d="M119,121.07V62A42.37,42.37,0,0,0,76.7,19.78H22.78l.15,51.08v8.82a42.37,42.37,0,0,0,42.25,42.25H97.5L119,122"/><path class="cls-1" d="M119,123.23h0l-53.77,0A43.58,43.58,0,0,1,21.65,79.68V70.86L21.5,19.78a1.28,1.28,0,0,1,.37-.9,1.3,1.3,0,0,1,.91-.38H76.7A43.58,43.58,0,0,1,120.23,62v59a1.23,1.23,0,0,1-.08.44,1.32,1.32,0,0,1,.08.44A1.28,1.28,0,0,1,119,123.23ZM24.06,21.06l.15,49.79v8.83a41,41,0,0,0,41,41h52.5V62a41,41,0,0,0-41-41Z"/><path class="cls-2" d="M87.42,57.49H53.58a3,3,0,1,1,0-6H87.42a3,3,0,1,1,0,6Z"/><path class="cls-2" d="M87.42,74.18H53.58a3,3,0,1,1,0-6H87.42a3,3,0,0,1,0,6Z"/><path class="cls-2" d="M87.42,91.2H53.58a3,3,0,1,1,0-6H87.42a3,3,0,0,1,0,6Z"/></svg>