<svg id="圖層_1" data-name="圖層 1" xmlns="http://www.w3.org/2000/svg" viewBox="0 0 141.73 141.73"><defs><style>.cls-1{fill:#9fa0a0;stroke:#9fa0a0;stroke-linecap:round;stroke-linejoin:round;stroke-width:3px;}.cls-2{fill:none;}</style></defs><path class="cls-1" d="M128,124.25C139.93,79.37,128,16,128,16l9.41-13.69H4.37L13.78,16s-12,63.34,0,108.22c.85.81-9.41,15.14-9.41,15.14h133S127.1,125.06,128,124.25ZM75,72a34.19,34.19,0,0,1,3.72-8,17,17,0,0,1,6.42-5.38A25.44,25.44,0,0,1,99,56.4a7.75,7.75,0,0,1,1.67.25C102.41,65.23,98.83,75.24,90.6,79c-.66.29-1.36.57-2,.81s-1.14.37-1.72.53a4.27,4.27,0,0,0-.48.13C79.25,82.26,72,81.91,72.17,81A70.13,70.13,0,0,1,75,72ZM44,60.73a6.23,6.23,0,0,1,1.42-.22,21.6,21.6,0,0,1,11.77,1.94A14.37,14.37,0,0,1,62.59,67a28.53,28.53,0,0,1,3.17,6.75,62,62,0,0,1,2.36,7.65c.16.73-6,1-12-.53l-.39-.1c-.5-.13-1-.29-1.47-.45s-1.17-.44-1.73-.69C45.51,76.48,42.47,68,44,60.73ZM34,106.59s2.57-12,15.44-6c0,0,3.44-14.59,16.32-6.87a21.14,21.14,0,0,1,2.67-2.89l2.79-2.18c5.33-3.51,13.92-5.47,22.85,7.64.86.86,13.6-3.43,13.66,10.3Z"/><path class="cls-2" d="M70.57,87.47l.61-.43"/></svg>