<svg id="圖層_1" data-name="圖層 1" xmlns="http://www.w3.org/2000/svg" viewBox="0 0 141.73 141.73"><defs><style>.cls-1{fill:#9fa0a0;}</style></defs><path class="cls-1" d="M46.42,99.51a3.5,3.5,0,0,1-2.51-1.06,3.46,3.46,0,0,1-.95-3l4-27.2a3.52,3.52,0,0,1,1-2l58.62-57A20.14,20.14,0,0,1,140.86,24a20,20,0,0,1-6.08,14.18l-58.62,57a3.51,3.51,0,0,1-2,1L46.84,99.49Zm7.34-29L50.56,92l21.56-2.61,57.78-56.2A13.17,13.17,0,0,0,111.54,14.3Z"/><path class="cls-1" d="M114.91,138.13H23.43A22.59,22.59,0,0,1,.87,115.57V27.79A22.59,22.59,0,0,1,23.43,5.22H73.71a3.5,3.5,0,0,1,0,7H23.43A15.59,15.59,0,0,0,7.87,27.79v87.78a15.58,15.58,0,0,0,15.56,15.56h91.48a15.58,15.58,0,0,0,15.57-15.56V63.25a3.5,3.5,0,0,1,7,0v52.32A22.59,22.59,0,0,1,114.91,138.13Z"/></svg>