<svg id="圖層_1" data-name="圖層 1" xmlns="http://www.w3.org/2000/svg" viewBox="0 0 111.73 108.73"><defs><style>.cls-1{fill:#9fa0a0;}</style></defs><path class="cls-1" d="M95.65,107.38H16.08a10,10,0,0,1-10-10v-86a10,10,0,0,1,10-10H95.65a10,10,0,0,1,10,10V97.39A10,10,0,0,1,95.65,107.38ZM16.08,5.68a5.67,5.67,0,0,0-5.65,5.66V97.39a5.67,5.67,0,0,0,5.65,5.66H95.65a5.66,5.66,0,0,0,5.65-5.66v-86a5.66,5.66,0,0,0-5.65-5.66Z"/><path class="cls-1" d="M76.09,86.82a2.12,2.12,0,0,1-1.47-.58L46.33,60a.68.68,0,0,0-.94,0L21.87,83.51a2.16,2.16,0,0,1-3.06-3.06L42.33,56.93a5,5,0,0,1,6.94-.12L77.56,83.07a2.16,2.16,0,0,1,.11,3.06A2.13,2.13,0,0,1,76.09,86.82Z"/><path class="cls-1" d="M59.58,71.49A2.16,2.16,0,0,1,58,67.82L75.8,49.49A5,5,0,0,1,79.32,48a5.11,5.11,0,0,1,3.56,1.41L93.11,59.3a2.16,2.16,0,0,1-3,3.11L79.86,52.49a.58.58,0,0,0-.48-.19.68.68,0,0,0-.47.2L61.13,70.84A2.16,2.16,0,0,1,59.58,71.49Z"/><path class="cls-1" d="M87.61,86.82H24.12a6.45,6.45,0,0,1-6.45-6.45V20.29a6.46,6.46,0,0,1,6.45-6.46H87.61a6.47,6.47,0,0,1,6.46,6.46V80.37A6.46,6.46,0,0,1,87.61,86.82ZM24.12,18.16A2.13,2.13,0,0,0,22,20.29V80.37a2.13,2.13,0,0,0,2.13,2.12H87.61a2.13,2.13,0,0,0,2.13-2.12V20.29a2.13,2.13,0,0,0-2.13-2.13Z"/><path class="cls-1" d="M58.78,50a13,13,0,1,1,13-13A13,13,0,0,1,58.78,50Zm0-21.64a8.66,8.66,0,1,0,8.65,8.66A8.66,8.66,0,0,0,58.78,28.4Z"/></svg>