<svg id="圖層_1" data-name="圖層 1" xmlns="http://www.w3.org/2000/svg" viewBox="0 0 60.73 59.73"><defs><style>.cls-1{fill:#9fa0a0;}</style></defs><path class="cls-1" d="M60.3,24.06a5.24,5.24,0,0,1-1.85,4.23C55.21,31,52,33.79,48.72,36.5a2.88,2.88,0,0,0-1.06,3.21c1,4.12,2,8.26,3,12.39a5.21,5.21,0,0,1-7.84,5.65q-6-3.73-12.07-7.48a.69.69,0,0,0-.84,0q-6,3.73-12,7.45A5.22,5.22,0,0,1,10,54.38a7.16,7.16,0,0,1,.3-3.31c.94-3.81,1.86-7.62,2.81-11.42A2.87,2.87,0,0,0,12,36.49c-3.24-2.69-6.45-5.41-9.66-8.14A5,5,0,0,1,.6,23.12a4.9,4.9,0,0,1,3.86-3.87A15.44,15.44,0,0,1,6.91,19q5.67-.43,11.34-.84a2.62,2.62,0,0,0,2.41-1.8q2.41-5.92,4.85-11.85a5.22,5.22,0,0,1,9.71,0q2.43,5.93,4.85,11.86a2.66,2.66,0,0,0,2.49,1.84c3.26.22,6.51.47,9.76.72a37.12,37.12,0,0,1,3.82.34A5.08,5.08,0,0,1,60.3,24.06Z"/></svg>