<svg id="圖層_1" data-name="圖層 1" xmlns="http://www.w3.org/2000/svg" viewBox="0 0 335 62"><defs><style>.cls-1{fill:#9fa0a0;}</style></defs><path class="cls-1" d="M60.19,25.2a5.21,5.21,0,0,1-1.85,4.23c-3.23,2.74-6.47,5.49-9.73,8.21a2.89,2.89,0,0,0-1.06,3.21c1,4.12,2,8.25,3.05,12.38a5.22,5.22,0,0,1-7.85,5.65q-6-3.74-12.07-7.47a.68.68,0,0,0-.84,0q-6,3.73-12,7.44a5.22,5.22,0,0,1-8-3.33,7.32,7.32,0,0,1,.3-3.32C11.11,48.4,12,44.59,13,40.79a2.86,2.86,0,0,0-1.08-3.16q-4.85-4.05-9.65-8.15A5,5,0,0,1,.49,24.25a4.91,4.91,0,0,1,3.87-3.87,18,18,0,0,1,2.45-.27c3.77-.28,7.55-.57,11.33-.83a2.63,2.63,0,0,0,2.41-1.8Q23,11.54,25.4,5.62a5.22,5.22,0,0,1,9.71,0c1.63,3.94,3.24,7.9,4.85,11.85a2.68,2.68,0,0,0,2.5,1.84c3.25.22,6.5.47,9.76.72,1.27.1,2.56.13,3.82.35A5,5,0,0,1,60.19,25.2Z"/><path class="cls-1" d="M129.67,25.2a5.21,5.21,0,0,1-1.85,4.23c-3.23,2.74-6.47,5.49-9.73,8.21A2.89,2.89,0,0,0,117,40.85c1,4.12,2,8.25,3,12.38a5.22,5.22,0,0,1-7.85,5.65q-6-3.74-12.07-7.47a.68.68,0,0,0-.84,0q-6,3.73-12,7.44a5.22,5.22,0,0,1-8-3.33,7.32,7.32,0,0,1,.3-3.32c.94-3.8,1.86-7.61,2.82-11.41a2.86,2.86,0,0,0-1.08-3.16q-4.85-4.05-9.65-8.15A5,5,0,0,1,70,24.25a4.91,4.91,0,0,1,3.87-3.87,18,18,0,0,1,2.45-.27c3.77-.28,7.55-.57,11.33-.83A2.63,2.63,0,0,0,90,17.48q2.41-5.94,4.85-11.86a5.22,5.22,0,0,1,9.71,0c1.63,3.94,3.24,7.9,4.85,11.85a2.68,2.68,0,0,0,2.5,1.84c3.25.22,6.5.47,9.76.72,1.27.1,2.56.13,3.82.35A5,5,0,0,1,129.67,25.2Z"/><path class="cls-1" d="M198.67,25.2a5.21,5.21,0,0,1-1.85,4.23c-3.23,2.74-6.47,5.49-9.73,8.21A2.89,2.89,0,0,0,186,40.85c1,4.12,2,8.25,3.05,12.38a5.22,5.22,0,0,1-7.85,5.65q-6-3.74-12.07-7.47a.68.68,0,0,0-.84,0q-6,3.73-12,7.44a5.22,5.22,0,0,1-8-3.33,7.32,7.32,0,0,1,.3-3.32c.94-3.8,1.86-7.61,2.82-11.41a2.86,2.86,0,0,0-1.08-3.16q-4.84-4.05-9.65-8.15A5,5,0,0,1,139,24.25a4.91,4.91,0,0,1,3.87-3.87,18,18,0,0,1,2.45-.27c3.77-.28,7.55-.57,11.33-.83a2.63,2.63,0,0,0,2.41-1.8q2.41-5.94,4.85-11.86a5.22,5.22,0,0,1,9.71,0c1.63,3.94,3.24,7.9,4.85,11.85a2.68,2.68,0,0,0,2.5,1.84c3.25.22,6.5.47,9.76.72,1.27.1,2.56.13,3.82.35A5,5,0,0,1,198.67,25.2Z"/><path class="cls-1" d="M267.67,25.2a5.21,5.21,0,0,1-1.85,4.23c-3.23,2.74-6.47,5.49-9.73,8.21A2.89,2.89,0,0,0,255,40.85c1,4.12,2,8.25,3,12.38a5.22,5.22,0,0,1-7.85,5.65q-6-3.74-12.07-7.47a.68.68,0,0,0-.84,0q-6,3.73-12,7.44a5.22,5.22,0,0,1-8-3.33,7.32,7.32,0,0,1,.3-3.32c.94-3.8,1.86-7.61,2.82-11.41a2.86,2.86,0,0,0-1.08-3.16q-4.84-4.05-9.65-8.15A5,5,0,0,1,208,24.25a4.91,4.91,0,0,1,3.87-3.87,18,18,0,0,1,2.45-.27c3.77-.28,7.55-.57,11.33-.83a2.63,2.63,0,0,0,2.41-1.8q2.41-5.94,4.85-11.86a5.22,5.22,0,0,1,9.71,0c1.63,3.94,3.24,7.9,4.85,11.85a2.68,2.68,0,0,0,2.5,1.84c3.25.22,6.5.47,9.76.72,1.27.1,2.56.13,3.82.35A5,5,0,0,1,267.67,25.2Z"/><path class="cls-1" d="M334.67,25.2a5.21,5.21,0,0,1-1.85,4.23c-3.23,2.74-6.47,5.49-9.73,8.21A2.89,2.89,0,0,0,322,40.85c1,4.12,2,8.25,3.05,12.38a5.22,5.22,0,0,1-7.85,5.65q-6-3.74-12.07-7.47a.68.68,0,0,0-.84,0q-6,3.73-12,7.44a5.22,5.22,0,0,1-7.95-3.33,7.32,7.32,0,0,1,.3-3.32c.94-3.8,1.86-7.61,2.82-11.41a2.86,2.86,0,0,0-1.08-3.16q-4.84-4.05-9.65-8.15A5,5,0,0,1,275,24.25a4.91,4.91,0,0,1,3.87-3.87,18,18,0,0,1,2.45-.27c3.77-.28,7.55-.57,11.33-.83a2.63,2.63,0,0,0,2.41-1.8q2.42-5.94,4.85-11.86a5.22,5.22,0,0,1,9.71,0c1.63,3.94,3.24,7.9,4.85,11.85a2.68,2.68,0,0,0,2.5,1.84c3.25.22,6.5.47,9.76.72,1.27.1,2.56.13,3.82.35A5,5,0,0,1,334.67,25.2Z"/></svg>