<svg id="圖層_1" data-name="圖層 1" xmlns="http://www.w3.org/2000/svg" viewBox="0 0 131.73 60.73"><defs><style>.cls-1{fill:#9fa0a0;}</style></defs><path class="cls-1" d="M61.06,24.56a5.24,5.24,0,0,1-1.85,4.23C56,31.54,52.74,34.29,49.48,37a2.88,2.88,0,0,0-1.06,3.21c1,4.12,2,8.26,3,12.39a5.21,5.21,0,0,1-7.84,5.65q-6-3.73-12.07-7.48a.69.69,0,0,0-.84,0q-6,3.73-12,7.45a5.22,5.22,0,0,1-8-3.34,7.16,7.16,0,0,1,.3-3.31C12,47.76,12.9,44,13.85,40.15A2.87,2.87,0,0,0,12.78,37c-3.24-2.69-6.45-5.41-9.66-8.14a5,5,0,0,1-1.76-5.23,4.9,4.9,0,0,1,3.86-3.87,15.44,15.44,0,0,1,2.45-.27Q13.34,19,19,18.64a2.62,2.62,0,0,0,2.41-1.8Q23.84,10.92,26.27,5A5.22,5.22,0,0,1,36,5q2.43,5.93,4.85,11.86a2.66,2.66,0,0,0,2.49,1.84c3.26.22,6.51.47,9.76.72a37.12,37.12,0,0,1,3.82.34A5.08,5.08,0,0,1,61.06,24.56Z"/><path class="cls-1" d="M130.54,24.56a5.24,5.24,0,0,1-1.85,4.23c-3.24,2.75-6.47,5.5-9.73,8.21a2.88,2.88,0,0,0-1.06,3.21c1,4.12,2,8.26,3,12.39a5.21,5.21,0,0,1-7.84,5.65q-6-3.73-12.07-7.48a.69.69,0,0,0-.84,0q-6,3.73-12,7.45a5.22,5.22,0,0,1-8-3.34,7.16,7.16,0,0,1,.3-3.31c.94-3.81,1.86-7.62,2.81-11.42A2.87,2.87,0,0,0,82.26,37C79,34.3,75.81,31.58,72.6,28.85a5,5,0,0,1-1.76-5.23,4.9,4.9,0,0,1,3.86-3.87,15.44,15.44,0,0,1,2.45-.27q5.67-.43,11.34-.84a2.62,2.62,0,0,0,2.41-1.8Q93.32,10.92,95.75,5a5.22,5.22,0,0,1,9.71,0q2.43,5.93,4.85,11.86a2.66,2.66,0,0,0,2.49,1.84c3.26.22,6.51.47,9.76.72a37.12,37.12,0,0,1,3.82.34A5.08,5.08,0,0,1,130.54,24.56Z"/></svg>