<svg id="圖層_1" data-name="圖層 1" xmlns="http://www.w3.org/2000/svg" viewBox="0 0 141.73 141.73"><defs><style>.cls-1{fill:#9fa0a0;}</style></defs><circle class="cls-1" cx="56.09" cy="37.62" r="22.17"/><path class="cls-1" d="M56.09,63.29A25.67,25.67,0,1,1,81.75,37.62,25.7,25.7,0,0,1,56.09,63.29Zm0-44.33A18.67,18.67,0,1,0,74.75,37.62,18.69,18.69,0,0,0,56.09,19Z"/><path class="cls-1" d="M107.81,124.29v-7.2A31.54,31.54,0,0,0,76.37,85.65H35.81A31.54,31.54,0,0,0,4.37,117.09v6.84Z"/><path class="cls-1" d="M107.81,127.79h0L4.35,127.43a3.5,3.5,0,0,1-3.48-3.5v-6.84A35,35,0,0,1,35.81,82.15H76.37a35,35,0,0,1,34.94,34.94v7.2a3.5,3.5,0,0,1-3.5,3.5ZM7.87,120.44l96.44.34v-3.69A28,28,0,0,0,76.37,89.15H35.81A28,28,0,0,0,7.87,117.09Z"/><path class="cls-1" d="M93,62.87a3.5,3.5,0,0,1,0-7,18.5,18.5,0,1,0,0-37,3.5,3.5,0,1,1,0-7,25.5,25.5,0,1,1,0,51Z"/><path class="cls-1" d="M137.37,127.87a3.5,3.5,0,0,1-3.5-3.5v-8.74c0-10.81-7.21-20.7-18-24.62a3.5,3.5,0,1,1,2.4-6.57c13.49,4.92,22.55,17.45,22.55,31.19v8.74A3.5,3.5,0,0,1,137.37,127.87Z"/></svg>