<svg id="圖層_1" data-name="圖層 1" xmlns="http://www.w3.org/2000/svg" viewBox="0 0 141.73 141.73"><defs><style>.cls-1{fill:#fff;}.cls-2{fill:#e4b786;}</style></defs><path class="cls-1" d="M114.8,114.92H34.3a2.54,2.54,0,1,1,0-5h80.5a2.54,2.54,0,1,1,0,5Z"/><path class="cls-1" d="M117.79,17.77V97.66H43.32S24,95.81,24,112.41v-82S22.64,17.77,39.27,17.77Z"/><path class="cls-1" d="M24,114.51h0a2.29,2.29,0,0,1-2.42-2.09v-82a13.32,13.32,0,0,1,4-10.31c3.12-2.93,7.73-4.41,13.69-4.41h78.52a2.29,2.29,0,0,1,2.44,2.09V97.66a2.29,2.29,0,0,1-2.44,2.1H43.32c-.33,0-7.93-.66-12.76,3-2.75,2.13-4.15,5.36-4.15,9.6h0A2.29,2.29,0,0,1,24,114.51Zm15.3-94.64c-4.51,0-7.89,1-10.05,3a9.68,9.68,0,0,0-2.82,7.33v70.21c.29-.26.59-.51.92-.76,6.45-5,15.86-4.12,16.25-4.09h71.77V19.87Z"/><path class="cls-1" d="M37.88,126.05c-2,0-7.68-.31-11.83-3.62a12.18,12.18,0,0,1-4.52-10A2.29,2.29,0,0,1,24,110.32a2.28,2.28,0,0,1,2.44,2.09,8.4,8.4,0,0,0,2.95,6.93c3.46,2.79,9,2.51,9.08,2.51h79.35a2.12,2.12,0,1,1,0,4.19H37.88Z"/><path class="cls-2" d="M102.48,47.68H59.76a2.54,2.54,0,1,1,0-5h42.72a2.74,2.74,0,0,1,2.93,2.51A2.75,2.75,0,0,1,102.48,47.68Z"/><path class="cls-2" d="M102.48,62.62H59.76a2.54,2.54,0,1,1,0-5h42.72a2.54,2.54,0,1,1,0,5Z"/></svg>