<svg id="圖層_1" data-name="圖層 1" xmlns="http://www.w3.org/2000/svg" viewBox="0 0 141.73 141.73"><defs><style>.cls-1{fill:#9fa0a0;}</style></defs><path class="cls-1" d="M107.94,105.48H33.79c-9.23,0-14.83-8.56-14.92-16.83-.1-8.8,5.84-14.16,11.07-18.89.84-.76,1.64-1.49,2.41-2.21V46.37a3.66,3.66,0,0,1,0-.57c0-.28,4.91-27.52,36-30.78a2.42,2.42,0,0,1,.38,0h3.84a3.32,3.32,0,0,1,.63,0h.16l.15,0c30.85,3.42,35.69,30.47,35.73,30.75a2.75,2.75,0,0,1,0,.57V67.55c.77.72,1.57,1.45,2.41,2.21C117,74.49,123,79.85,122.87,88.65,122.78,96.92,117.17,105.48,107.94,105.48ZM39.35,46.7V69a3.53,3.53,0,0,1-1,2.47c-1.2,1.19-2.47,2.34-3.69,3.45-4.74,4.28-8.83,8-8.77,13.63.05,4.87,3,9.9,7.92,9.9h74.15c4.9,0,7.87-5,7.93-9.9.06-5.65-4-9.35-8.77-13.63-1.23-1.11-2.5-2.26-3.69-3.45a3.5,3.5,0,0,1-1-2.47V46.69c-.52-2.55-5.25-22-29.54-24.68H69C44.64,24.65,39.88,44.09,39.35,46.7Z"/><path class="cls-1" d="M70.87,22a3.5,3.5,0,0,1-3.5-3.5V4.74a3.5,3.5,0,1,1,7,0V18.5A3.5,3.5,0,0,1,70.87,22Z"/><path class="cls-1" d="M70.87,140.5c-12,0-22-10.77-23.81-25.59a3.5,3.5,0,1,1,6.94-.86c1.37,11.09,8.62,19.45,16.87,19.45S86.48,125,87.76,113.79a3.5,3.5,0,1,1,7,.79C93,129.6,83,140.5,70.87,140.5Z"/></svg>