<svg id="圖層_1" data-name="圖層 1" xmlns="http://www.w3.org/2000/svg" viewBox="0 0 141.73 141.73"><defs><style>.cls-1{fill:#9fa0a0;}</style></defs><circle class="cls-1" cx="70.87" cy="70.87" r="31.55"/><path class="cls-1" d="M70.87,104.42a33.55,33.55,0,1,1,33.55-33.55A33.59,33.59,0,0,1,70.87,104.42Zm0-63.1a29.55,29.55,0,1,0,29.55,29.55A29.58,29.58,0,0,0,70.87,41.32Z"/><path class="cls-1" d="M70.87,33.33a3.5,3.5,0,0,1-3.5-3.5V5.37a3.5,3.5,0,0,1,7,0V29.83A3.5,3.5,0,0,1,70.87,33.33Z"/><path class="cls-1" d="M41.85,45.35a3.48,3.48,0,0,1-2.48-1L22.08,27a3.5,3.5,0,0,1,5-5L44.32,39.37a3.49,3.49,0,0,1,0,5A3.44,3.44,0,0,1,41.85,45.35Z"/><path class="cls-1" d="M29.83,74.37H5.37a3.5,3.5,0,0,1,0-7H29.83a3.5,3.5,0,0,1,0,7Z"/><path class="cls-1" d="M24.55,120.68a3.5,3.5,0,0,1-2.47-6l17.29-17.3a3.5,3.5,0,1,1,5,5L27,119.66A3.51,3.51,0,0,1,24.55,120.68Z"/><path class="cls-1" d="M70.87,139.87a3.5,3.5,0,0,1-3.5-3.5V111.9a3.5,3.5,0,0,1,7,0v24.47A3.5,3.5,0,0,1,70.87,139.87Z"/><path class="cls-1" d="M117.18,120.68a3.49,3.49,0,0,1-2.47-1l-17.3-17.3a3.5,3.5,0,1,1,5-5l17.3,17.3a3.5,3.5,0,0,1-2.48,6Z"/><path class="cls-1" d="M136.37,74.37H111.9a3.5,3.5,0,0,1,0-7h24.47a3.5,3.5,0,0,1,0,7Z"/><path class="cls-1" d="M99.88,45.35a3.46,3.46,0,0,1-2.47-1,3.49,3.49,0,0,1,0-5l17.3-17.29a3.5,3.5,0,1,1,5,5l-17.3,17.29A3.48,3.48,0,0,1,99.88,45.35Z"/></svg>