<svg id="圖層_1" data-name="圖層 1" xmlns="http://www.w3.org/2000/svg" viewBox="0 0 141.73 141.73"><defs><style>.cls-1{fill:#fff;}.cls-2{fill:#e4b786;}</style></defs><path class="cls-1" d="M92,112.57H21.15a12.18,12.18,0,0,1,0-24.36h38a1.93,1.93,0,1,1,0,3.86h-38a8.32,8.32,0,0,0,0,16.63H92c.23,0,.44,0,.66,0L115.1,88.31V55.72H87.73l-20,20a7.9,7.9,0,0,0,0,11.18,8.14,8.14,0,0,0,11.19,0L98.56,67.27A1.93,1.93,0,1,1,101.3,70L81.63,89.66a12.08,12.08,0,0,1-16.66,0A11.79,11.79,0,0,1,65,73l20.6-20.59a1.93,1.93,0,0,1,1.36-.57H117A1.94,1.94,0,0,1,119,53.79V89.17a2,2,0,0,1-.64,1.44L94.77,112a2.06,2.06,0,0,1-1,.47A11.92,11.92,0,0,1,92,112.57Z"/><path class="cls-1" d="M136.43,91.11H117a1.94,1.94,0,0,1,0-3.87H134.5V55.72H117a1.94,1.94,0,0,1,0-3.87h19.4a1.94,1.94,0,0,1,1.94,1.94V89.17A1.94,1.94,0,0,1,136.43,91.11Z"/><path class="cls-2" d="M21.72,63.94h0Z"/><path class="cls-1" d="M21.72,65.88h-.38A1.93,1.93,0,0,1,19.41,64v-.09A1.93,1.93,0,0,1,21.34,62h0a2.11,2.11,0,0,1,2.08,1.93h0A1.78,1.78,0,0,1,21.72,65.88Z"/><path class="cls-2" d="M38.13,47.9h0v16H21.34a16.46,16.46,0,0,1-16-16.41c0-.13,0-.26,0-.38h0v-16H22.1a16.45,16.45,0,0,1,16,16.41C38.14,47.65,38.14,47.78,38.13,47.9Z"/><path class="cls-1" d="M38.14,65.88H21.72l-.5,0A18.43,18.43,0,0,1,3.37,47.53s0-.47,0-.51V31.1A1.91,1.91,0,0,1,5.3,29.17H22.22A18.4,18.4,0,0,1,40.07,47.53V63.94a1.93,1.93,0,0,1-.56,1.37A2,2,0,0,1,38.14,65.88ZM7.23,33V47.14A14.65,14.65,0,0,0,21.38,62H36.21V47.9s0-.08,0-.12l1.93.12-1.92-.37A14.52,14.52,0,0,0,22.06,33Z"/><path class="cls-2" d="M22.1,31.1h0Z"/><path class="cls-1" d="M22.1,33h-.38a1.93,1.93,0,1,1,0-3.86,3.66,3.66,0,0,1,.5,0A1.93,1.93,0,0,1,22.15,33h0Z"/><path class="cls-2" d="M54.56,63.94h0Z"/><path class="cls-1" d="M54.94,65.88a2.11,2.11,0,0,1-2.12-1.94A1.78,1.78,0,0,1,54.56,62h.38a1.94,1.94,0,1,1,0,3.87Zm0,0h0Zm-.42-1.93h0Z"/><path class="cls-2" d="M38.15,47.9h0v16h16.8A16.46,16.46,0,0,0,71,47.52c0-.13,0-.26,0-.38h0v-16H54.18a16.45,16.45,0,0,0-16,16.41C38.14,47.65,38.14,47.78,38.15,47.9Z"/><path class="cls-1" d="M38.14,65.88a1.94,1.94,0,0,1-1.93-1.94v-16c0-.13,0-.34,0-.37A18.4,18.4,0,0,1,54.14,29.17H71a1.94,1.94,0,0,1,1.93,1.93v16A18.55,18.55,0,0,1,55,65.87ZM40.07,62H54.56A14.64,14.64,0,0,0,69,47.53V33H54.56a14.67,14.67,0,0,0-10.23,4.26,14.38,14.38,0,0,0-4.26,10.24V62Z"/><path class="cls-2" d="M54.18,31.1h0Z"/><path class="cls-1" d="M54.56,33a2.1,2.1,0,0,1-2.12-1.93,1.78,1.78,0,0,1,1.74-1.93h.38a1.93,1.93,0,1,1,0,3.86Z"/><path class="cls-1" d="M38.14,83.37a1.94,1.94,0,0,1-1.93-1.94V63.94a1.93,1.93,0,0,1,3.86,0V81.43A1.93,1.93,0,0,1,38.14,83.37Z"/></svg>