<svg id="圖層_1" data-name="圖層 1" xmlns="http://www.w3.org/2000/svg" viewBox="0 0 141.73 141.73"><defs><style>.cls-1{fill:#9fa0a0;}</style></defs><path class="cls-1" d="M70.87,140.86a70,70,0,1,1,70-70A70.07,70.07,0,0,1,70.87,140.86Zm0-133a63,63,0,1,0,63,63A63.07,63.07,0,0,0,70.87,7.87Z"/><path class="cls-1" d="M53.37,104.5q-6.73,0-6.73-6.73V43.14a5.63,5.63,0,0,1,5.91-5.91H68.73q26.35,0,26.36,21.09,0,11-7.54,16.91-6.92,5.37-18.46,5.36h-9V97.77Q60.09,104.51,53.37,104.5ZM60.09,70h8.09q13.72,0,13.73-11.64c0-3.76-1.21-6.48-3.64-8.18q-3.36-2.27-10.54-2.27H60.09V70Z"/></svg>