<svg id="圖層_1" data-name="圖層 1" xmlns="http://www.w3.org/2000/svg" viewBox="0 0 141.73 141.73"><defs><style>.cls-1{fill:#9fa0a0;}</style></defs><path class="cls-1" d="M129.72,140.15a3.65,3.65,0,0,1-3.65-3.65V56.94A48.12,48.12,0,0,0,78,8.87H15.67l.17,58.86V78.54a48.13,48.13,0,0,0,48.07,48.07h39.56a3.65,3.65,0,0,1,0,7.29H63.91A55.43,55.43,0,0,1,8.55,78.54V67.74L8.37,5.24A3.65,3.65,0,0,1,12,1.58H78a55.43,55.43,0,0,1,55.36,55.36V136.5A3.65,3.65,0,0,1,129.72,140.15Z"/><path class="cls-1" d="M91.12,51.38H49.71a3.65,3.65,0,1,1,0-7.29H91.12a3.65,3.65,0,1,1,0,7.29Z"/><path class="cls-1" d="M91.12,71.81H49.71a3.65,3.65,0,1,1,0-7.3H91.12a3.65,3.65,0,0,1,0,7.3Z"/><path class="cls-1" d="M91.12,92.64H49.71a3.65,3.65,0,1,1,0-7.29H91.12a3.65,3.65,0,1,1,0,7.29Z"/></svg>