<svg xmlns="http://www.w3.org/2000/svg" viewBox="0 0 141.73 141.73"><defs><style>.cls-1{fill:#9fa0a0;}</style></defs><g id="圖層_2" data-name="圖層 2"><path class="cls-1" d="M112.61,115.3H49.53c-4.39-.5-4.81-3.57-4.81-4.74a1.34,1.34,0,0,1,0-.21c0-.16,0-.26,0-.26l1.38-20.53c0-.23,0-.45,0-.65a.28.28,0,0,1,0-.09l.23-3.41h0l.29-4.46,1.06-15.75.18-2.58.25-3.69h0l1.89-28.25s.94-4.22,5-4.22H107.3s4.17.23,4.74,4.16c0,0,0,0,0,.06l1.26,19,3.08,45.94.89,13.42v.08A6.1,6.1,0,0,1,112.61,115.3Z"/><path class="cls-1" d="M114.58,99.14a26.54,26.54,0,1,1,26.29-26.53A26.44,26.44,0,0,1,114.58,99.14Zm0-46.07a19.54,19.54,0,1,0,19.29,19.54A19.45,19.45,0,0,0,114.58,53.07Z"/><polygon class="cls-1" points="23.96 43.38 15.81 52.03 0.37 51.1 22.1 28.02 23.96 43.38"/><polygon class="cls-1" points="23.96 43.38 54.3 67.75 48.36 87.56 15.81 52.03 23.96 43.38"/><path class="cls-1" d="M49.78,115.3h-.25C49.67,115.12,49.74,115.14,49.78,115.3Z"/><path class="cls-1" d="M45,60.26s2.54,1.3,3.19-1.35c.26.87,1.67,1.46,1.67,1.46v3.06l-2.43,2-3-4.33Z"/><path class="cls-1" d="M43.85,82.64s2.65,2.16,2.27,6.92c1.28.25,3.72-1.51,3.72-1.51V84l-2.06-3.08H45.27Z"/><path class="cls-1" d="M13.17,51.87a7.76,7.76,0,0,1,4.54,2.23,23.66,23.66,0,0,0,1.28-3l-2.06-1h-3.1Z"/><path class="cls-1" d="M23.61,40.49a7.69,7.69,0,0,0,2.44,4.57A23,23,0,0,0,23.1,46s-1.35-2.1-1.7-2.59.68-1.52.68-1.52Z"/></g></svg>