<svg id="圖層_1" data-name="圖層 1" xmlns="http://www.w3.org/2000/svg" viewBox="0 0 141.73 141.73">

    <path class="cls-1"
        d="M70.83,131.08c-20,0-40.08,0-60.12,0-8.58,0-10.38-3-6.15-10.35Q34.82,68.09,65.22,15.54c3.81-6.6,7.43-6.54,11.33.2q30.56,52.84,61,105.79c3.74,6.53,1.89,9.49-5.84,9.52C111.39,131.11,91.11,131.07,70.83,131.08ZM59,70.15h0c0,5.22-.34,10.48.09,15.67C59.64,92.76,63.85,96,71.16,96c7.15-.06,11.4-3.61,11.63-10.66.33-9.73.32-19.49,0-29.21C82.56,49.3,78,45.62,70.94,45.58c-7.3,0-11.37,3.27-11.92,10.32C58.65,60.62,59,65.4,59,70.15ZM72,101A11.54,11.54,0,0,0,60,111.74c-.28,5.83,5,11.64,10.86,12,5.7.33,11.58-5,12-10.94S78,101.25,72,101Z" />
    <path class="cls-1"
        d="M35.35,132.59c-8.21,0-16.46,0-24.64,0-5,0-7.94-1-9.2-3.22-1.64-2.83.21-6.71,1.75-9.38,20.59-35.82,41-71.21,60.66-105.17,2.2-3.8,4.45-5.65,6.88-5.65h0c2.46,0,4.77,1.91,7,5.85,20.59,35.6,41.09,71.19,61,105.8,2.14,3.74,2.61,6.55,1.43,8.61s-3.95,3.13-8.56,3.15c-14,0-28.24,0-42,0H35.35ZM70.8,12.14c-1.23,0-2.71,1.43-4.28,4.15-19.66,34-40.07,69.35-60.66,105.17-2.24,3.9-2.19,5.62-1.75,6.39s1.95,1.7,6.61,1.71c15,.05,30.23,0,45,0H70.83q9.4,0,18.83,0c13.76,0,28,0,42,0,4.16,0,5.54-.91,6-1.65.59-1,.09-3-1.43-5.62C116.33,87.68,95.83,52.09,75.25,16.49c-1.63-2.81-3.21-4.35-4.45-4.35Zm.6,113.09h-.59c-6.74-.4-12.59-6.85-12.27-13.55a12.65,12.65,0,0,1,4.26-8.84A12.83,12.83,0,0,1,72,99.46h0a13.14,13.14,0,0,1,9,4.45,12.45,12.45,0,0,1,3.28,9C83.94,119.4,77.74,125.23,71.4,125.23Zm0-22.78a9.85,9.85,0,0,0-6.62,2.6,9.71,9.71,0,0,0-3.27,6.76c-.25,5.06,4.34,10.11,9.45,10.41,4.92.29,10.05-4.43,10.37-9.53a9.42,9.42,0,0,0-2.53-6.78,10.09,10.09,0,0,0-6.94-3.45Zm-.47-5c-8.14,0-12.77-4-13.39-11.54a109,109,0,0,1-.15-11c0-1.19,0-2.37.06-3.56l0-1.25c0-1.46,0-2.92-.06-4.38-.06-3.27-.13-6.65.13-10,.6-7.66,5.19-11.71,13.28-11.71H71c8.1.05,13.09,4.53,13.34,12,.32,9.73.33,19.59,0,29.32-.25,7.74-4.91,12-13.12,12.11ZM60.44,68.65h0v1.5c0,1.62,0,3.24-.06,4.87-.07,3.52-.14,7.16.14,10.67.49,6,3.79,8.79,10.39,8.79h.2c6.53,0,9.94-3.15,10.14-9.21.33-9.66.32-19.46,0-29.11-.2-5.82-3.87-9-10.36-9.08h-.14c-6.53,0-9.8,2.84-10.28,8.94-.25,3.19-.18,6.49-.12,9.69C60.41,66.69,60.43,67.67,60.44,68.65Z" />
</svg>