<svg id="圖層_1" data-name="圖層 1" xmlns="http://www.w3.org/2000/svg" viewBox="0 0 141.73 141.73"><defs><style>.cls-1{fill:#9fa0a0;}</style></defs><path class="cls-1" d="M128.41,127.27H13.32a11,11,0,0,1-10.95-11V25.42a11,11,0,0,1,11-11H128.41a11,11,0,0,1,11,11v90.9A11,11,0,0,1,128.41,127.27ZM13.32,21.47a4,4,0,0,0-4,4v90.9a4,4,0,0,0,4,4H128.41a4,4,0,0,0,4-4V25.42a4,4,0,0,0-4-4Z"/><path class="cls-1" d="M70.87,86.46c-7.29,0-13.85-6.35-14.57-7.07L20,43.11a3.5,3.5,0,1,1,4.95-5L61.25,74.44c1.41,1.39,5.88,5,9.62,5a3.51,3.51,0,0,1,0,7Z"/><path class="cls-1" d="M70.87,86.46a3.51,3.51,0,1,1,0-7c3.73,0,8.21-3.62,9.62-5l36.27-36.27a3.5,3.5,0,0,1,4.95,5L85.44,79.39C84.71,80.11,78.15,86.46,70.87,86.46Z"/><path class="cls-1" d="M24,112.16a3.5,3.5,0,0,1-2.79-5.61L39.34,82.37A3.5,3.5,0,0,1,45,86.57L26.81,110.76A3.52,3.52,0,0,1,24,112.16Z"/><path class="cls-1" d="M120.75,112.16a3.5,3.5,0,0,1-2.8-1.4L99.81,86.57a3.5,3.5,0,1,1,5.6-4.2l18.14,24.18a3.5,3.5,0,0,1-2.8,5.61Z"/></svg>