<?xml version="1.0" encoding="UTF-8"?>
<svg id="_圖層_1" xmlns="http://www.w3.org/2000/svg" viewBox="0 0 566.93 566.93" fill="#000" >
    <defs>
        <style></style>
    </defs>
    <path class="cls-1"
        d="M428.23,419.47c29.59-121.92,0-294,0-294l23.26-37.18H122.74l23.26,37.18s-29.59,172.08,0,294c2.12,2.18-23.26,41.12-23.26,41.12H451.48s-25.38-38.94-23.26-41.12Zm-131.01-141.89c2.53-7.35,5-15.2,9.21-21.62,4.08-6.24,9.59-11.32,15.87-14.63,10.65-5.55,22.6-7.7,34.31-6.18,.41,.06,4.1,.36,4.13,.69,4.35,23.29-4.51,50.49-24.86,60.59-1.63,.81-3.34,1.55-5.05,2.21-1.39,.54-2.83,1.02-4.27,1.43-.38,.12-.79,.21-1.17,.36-17.55,4.99-35.56,4.03-35.05,1.67,1.74-8.33,4.13-16.51,6.87-24.51Zm-76.62-30.67c.03-.27,3.15-.57,3.5-.6,9.94-1.28,20.05,.54,29.1,5.26,5.33,2.81,10,7.11,13.45,12.39,3.59,5.43,5.68,12.09,7.82,18.33,2.34,6.81,4.35,13.74,5.84,20.78,.41,2-14.86,2.84-29.75-1.43-.33-.09-.65-.18-.98-.27-1.22-.36-2.45-.78-3.61-1.22-1.47-.57-2.91-1.19-4.29-1.88-17.25-8.57-24.75-31.62-21.08-51.36Zm-24.61,124.58s6.36-32.64,38.17-16.3c0,0,8.5-39.62,40.32-18.66,0,0,2.39-3.61,6.6-7.85l6.9-5.91c13.18-9.53,34.42-14.87,56.48,20.75,2.12,2.33,33.61-9.32,33.77,27.98H195.99Z" />
</svg>