<svg id="圖層_1" data-name="圖層 1" xmlns="http://www.w3.org/2000/svg" viewBox="0 0 141.73 141.73"><defs><style>.cls-1{fill:#9fa0a0;}</style></defs><path class="cls-1" d="M32.91,113.2a3.77,3.77,0,0,1-3.18-1.2,3.48,3.48,0,0,1-.92-3.32A166.46,166.46,0,0,1,39.34,79l1.91-4.91a28.64,28.64,0,0,1-.17-3.21A29.82,29.82,0,0,1,70.51,41.08c1.53-.31,5.08-1,6.7-1.18l.05,0a8,8,0,0,1,.84-.39A3.5,3.5,0,0,1,80.63,46l-.2.1a5.91,5.91,0,0,1-2.36.73c-.7,0-3.92.64-6.52,1.16a3.82,3.82,0,0,1-.68.07A22.81,22.81,0,0,0,48.08,70.87a22.56,22.56,0,0,0,.22,3.18,3.49,3.49,0,0,1-.21,1.75l-2.26,5.83-.09.21a161.11,161.11,0,0,0-8.81,23.56c4-1.16,11.82-4,26.57-11a3.63,3.63,0,0,1,1.17-.32l4.91-.46H70l.84,0A22.81,22.81,0,0,0,92.93,65.13a3.5,3.5,0,1,1,6.78-1.76,29.82,29.82,0,0,1-28.84,37.29l-.86,0-4.08.39C45,110.87,36.64,113.2,32.91,113.2Z"/><path class="cls-1" d="M96.32,67.75a3.5,3.5,0,0,1-3.39-2.62,21,21,0,0,0-.7-2.21,3.53,3.53,0,0,1,.16-2.81L94,56.9a144.83,144.83,0,0,0,7.76-17.44A162.16,162.16,0,0,0,80.63,46a3.5,3.5,0,1,1-2.53-6.53,166.51,166.51,0,0,1,27.37-8,3.51,3.51,0,0,1,3.28,1.08c1.37,1.51,3.44,3.79-8.48,27.48l-1,1.9c.15.47.28.94.41,1.41a3.51,3.51,0,0,1-2.51,4.27A3.85,3.85,0,0,1,96.32,67.75Z"/><path class="cls-1" d="M70.87,86.74A15.88,15.88,0,1,1,86.74,70.87,15.89,15.89,0,0,1,70.87,86.74Zm0-24.75a8.88,8.88,0,1,0,8.87,8.88A8.89,8.89,0,0,0,70.87,62Z"/><path class="cls-1" d="M70.87,140.87a70,70,0,1,1,70-70A70.08,70.08,0,0,1,70.87,140.87Zm0-133a63,63,0,1,0,63,63A63.07,63.07,0,0,0,70.87,7.87Z"/></svg>