<svg id="圖層_1" data-name="圖層 1" xmlns="http://www.w3.org/2000/svg" viewBox="0 0 141.73 141.73"><defs><style>.cls-1{fill:#9fa0a0;}</style></defs><path class="cls-1" d="M4.93,41.33s-4.14,20.54,10,36c.86,1.17,14.72,13.12,39.22,9,.57-.09.2-4.24.17-4.66a59.8,59.8,0,0,0-2.09-12.25A48.72,48.72,0,0,0,46.4,55.51,29.37,29.37,0,0,0,34,45.13,47.48,47.48,0,0,0,8.08,40.86C7.76,40.9,5,41.11,4.93,41.33Z"/><path class="cls-1" d="M44.27,90.7c-18.42,0-29.74-8.53-31.94-11-15.09-16.52-11-38.11-10.83-39v0c.56-2.73,2.93-3,5.94-3.23l.25,0A50.8,50.8,0,0,1,35.49,42,32.75,32.75,0,0,1,49.32,53.59,52.93,52.93,0,0,1,55.6,68.52a64.15,64.15,0,0,1,2.2,13l0,.16c.27,3.54.57,7.56-3.1,8.17A63.2,63.2,0,0,1,44.27,90.7ZM17.64,75.11c.53.5,12,10.76,33.27,8.18,0-.32,0-.69-.07-1.12l0-.26a57.18,57.18,0,0,0-2-11.53c-1.56-5.66-3.22-9.66-5.38-12.95a25.9,25.9,0,0,0-11-9.14,43.84,43.84,0,0,0-24-4l-.4,0h0C7.56,49.89,7.46,64,17.51,75Zm0,0,.08.1Z"/><path class="cls-1" d="M136.29,24.13c4.33,21.18-4.52,45.9-24.85,55.09-12.54,5.67-26.73,6.7-40.21,4.46-.76-.13-.26-5.62-.23-6.17a80.15,80.15,0,0,1,2.76-16.2c1.75-6.36,4-12.84,7.7-18.43,4.1-6.24,9.72-10.54,16.41-13.73a62.89,62.89,0,0,1,34.26-5.65C132.55,23.55,136.24,23.84,136.29,24.13Z"/><path class="cls-1" d="M84.39,88.29a84.21,84.21,0,0,1-13.74-1.16c-3.84-.64-3.51-5-3.16-9.6l0-.23a83.83,83.83,0,0,1,2.88-16.92C71.81,55.21,74.2,47.56,78.54,41c4.16-6.35,10-11.24,17.83-15a66.14,66.14,0,0,1,36.17-6l.35,0c3.9.37,6.26.59,6.83,3.36h0c5,24.45-6.55,49.8-26.84,59A69,69,0,0,1,84.39,88.29ZM74.32,80.6c12.9,1.74,25.19.17,35.68-4.57,19-8.58,26-31.08,23.27-48.9l-1-.1-.52-.05a59.12,59.12,0,0,0-32.34,5.33c-6.65,3.16-11.55,7.25-15,12.49-2.93,4.45-5.16,9.83-7.25,17.44a76.17,76.17,0,0,0-2.65,15.49l0,.33C74.39,79.15,74.34,80,74.32,80.6Zm60.8-53.22h0Zm-2.25-2.55h0Z"/><path class="cls-1" d="M59,122.15a3.5,3.5,0,0,1-3.5-3.43A60.62,60.62,0,0,1,68.4,80.2,3.5,3.5,0,1,1,74,84.44a53.77,53.77,0,0,0-11.43,34.15,3.49,3.49,0,0,1-3.43,3.56Z"/><path class="cls-1" d="M62.27,102.13a3.48,3.48,0,0,1-3.16-2A62.55,62.55,0,0,0,51,87.4,3.5,3.5,0,0,1,56.38,83a68.64,68.64,0,0,1,9.05,14.17,3.5,3.5,0,0,1-3.16,5Z"/></svg>