<svg id="圖層_1" data-name="圖層 1" xmlns="http://www.w3.org/2000/svg" viewBox="0 0 141.73 141.73"><defs><style>.cls-1{fill:#9fa0a0;}</style></defs><path class="cls-1" d="M122.28,140.71h-32a3.5,3.5,0,0,1-3.5-3.5V97.73a15.23,15.23,0,0,0-15.2-15.21l-.57,0a3.55,3.55,0,0,1-3.62-3.38,3.49,3.49,0,0,1,3.38-3.62l.81,0a22.23,22.23,0,0,1,22.2,22.21v36H122.1c10.19-1.11,11.6-10.75,11.77-12.37V71.18a8.32,8.32,0,0,0-2.18-5.34l-.07-.09a.32.32,0,0,1-.08-.09,2.09,2.09,0,0,1-.22-.2l-.09-.09L75.32,9.46l-.08-.09a5.21,5.21,0,0,0-3.95-1.32,3.5,3.5,0,1,1-.84-6.94,12,12,0,0,1,9.84,3.43l55.82,55.8.26.27a7,7,0,0,1,.53.55,15.29,15.29,0,0,1,4,10V121.5c0,.09,0,.18,0,.27-.46,6-4.86,17.6-18.24,18.93Zm9.94-74.62h0Zm0,0h0Z"/><path class="cls-1" d="M51.47,140.71H19.11c-13.38-1.33-17.78-13-18.23-18.93a2.44,2.44,0,0,1,0-.27V71.18a15.3,15.3,0,0,1,4-10,7,7,0,0,1,.53-.55,2.23,2.23,0,0,1,.27-.26L61.44,4.54a12,12,0,0,1,9.85-3.43,3.5,3.5,0,0,1-.84,6.94,5.15,5.15,0,0,0-4,1.36l-56,56-.08.08-.24.23-.06.07-.08.09a8.32,8.32,0,0,0-2.17,5.34v50.16c.15,1.57,1.54,11.26,11.76,12.37H48v-36a22.24,22.24,0,0,1,22.2-22.21l.81,0a3.5,3.5,0,0,1-.11,7h-.12l-.58,0A15.24,15.24,0,0,0,55,97.73v39.48A3.5,3.5,0,0,1,51.47,140.71ZM10.27,65.59a4.52,4.52,0,0,1-.76.5A3.44,3.44,0,0,0,10.27,65.59Z"/></svg>