<svg id="圖層_1" data-name="圖層 1" xmlns="http://www.w3.org/2000/svg" viewBox="0 0 141.73 141.73"><defs><style>.cls-1{fill:#9fa0a0;}</style></defs><path class="cls-1" d="M70.87,139.37a68.5,68.5,0,1,1,68.5-68.5A68.57,68.57,0,0,1,70.87,139.37Zm0-130a61.55,61.55,0,1,0,61.55,61.55A61.62,61.62,0,0,0,70.87,9.32Z"/><path class="cls-1" d="M135.89,73.88H5.84a3.48,3.48,0,0,1,0-6.95h130a3.48,3.48,0,1,1,0,6.95Z"/><path class="cls-1" d="M60,138.37a3.47,3.47,0,0,1-3.17-2.05c-19-42.47-18-75.85-13.78-96.37C47.7,17.49,56.87,5.24,57.26,4.73a3.48,3.48,0,0,1,5.54,4.2c-.14.18-8.76,11.84-13,32.83C45.87,61.21,45,92.91,63.2,133.48a3.48,3.48,0,0,1-1.75,4.59A3.39,3.39,0,0,1,60,138.37Z"/><path class="cls-1" d="M76.48,138.37a3.46,3.46,0,0,1-3.16-4.89c34.87-77.8.75-124.08.4-124.54a3.48,3.48,0,0,1,5.53-4.21c.39.51,9.56,12.76,14.19,35.22,4.22,20.52,5.26,53.9-13.78,96.37A3.48,3.48,0,0,1,76.48,138.37Z"/></svg>