<svg id="圖層_1" data-name="圖層 1" xmlns="http://www.w3.org/2000/svg" viewBox="0 0 141.73 141.73">

    <path class="cls-1"
        d="M72,140.8H69.82a19.87,19.87,0,0,1-2.32-1.6,206,206,0,0,1-25.64-28.46C34.16,100.42,27.5,89.5,23,77.36c-4.26-11.57-6.28-23.43-3.16-35.57C25.23,21,38.4,7.79,59.2,2.33c2.65-.7,5.43-.94,8.16-1.4h7.1c.35.08.69.18,1.05.24,2.59.42,5.24.63,7.78,1.27,27.32,6.81,45,33.92,38.85,63.23A99.5,99.5,0,0,1,109.92,95.8c-9.27,15.7-21,29.46-34.09,42A46.54,46.54,0,0,1,72,140.8Zm28.07-87.44A29.16,29.16,0,1,0,70.89,82.55,29.29,29.29,0,0,0,100.07,53.36Z" />
</svg>