<svg id="圖層_1" data-name="圖層 1" xmlns="http://www.w3.org/2000/svg" viewBox="0 0 141.73 141.73"><defs><style>.cls-1{fill:#9fa0a0;}</style></defs><path class="cls-1" d="M70.87,139.87a69,69,0,1,1,69-69A69.08,69.08,0,0,1,70.87,139.87Zm0-131a62,62,0,1,0,62,62A62.07,62.07,0,0,0,70.87,8.87Z"/><path class="cls-1" d="M70.87,70.73A21.7,21.7,0,1,1,92.56,49,21.72,21.72,0,0,1,70.87,70.73Zm0-36.39A14.7,14.7,0,1,0,85.56,49,14.71,14.71,0,0,0,70.87,34.34Z"/><path class="cls-1" d="M122.73,114.38a3.53,3.53,0,0,1-3.14-1.95c-9.42-19-28.09-30.79-48.72-30.79s-39.31,11.8-48.73,30.79a3.5,3.5,0,0,1-6.27-3.11c10.61-21.39,31.68-34.68,55-34.68s44.38,13.29,55,34.68a3.51,3.51,0,0,1-1.58,4.69A3.47,3.47,0,0,1,122.73,114.38Z"/></svg>