<svg id="圖層_1" data-name="圖層 1" xmlns="http://www.w3.org/2000/svg" viewBox="0 0 141.73 141.73"><defs><style>.cls-1{fill:#9fa0a0;}</style></defs><path class="cls-1" d="M119.92,140.65H21.81a11,11,0,0,1-10.94-11V12A11,11,0,0,1,21.81,1.08h98.11a11,11,0,0,1,11,11V129.7A11,11,0,0,1,119.92,140.65ZM21.81,8.08A4,4,0,0,0,17.87,12V129.7a4,4,0,0,0,3.94,4h98.11a4,4,0,0,0,4-4V12a4,4,0,0,0-4-3.95Z"/><circle class="cls-1" cx="70.87" cy="26.67" r="11.03"/><path class="cls-1" d="M39.42,66.89C45.26,53.5,57.15,44.33,70.87,44.33s25.6,9.17,31.44,22.57"/><path class="cls-1" d="M92.06,88H49.67a3.5,3.5,0,0,1,0-7H92.06a3.5,3.5,0,0,1,0,7Z"/><path class="cls-1" d="M92.06,102.45H49.67a3.5,3.5,0,0,1,0-7H92.06a3.5,3.5,0,0,1,0,7Z"/><path class="cls-1" d="M92.06,118.44H49.67a3.5,3.5,0,0,1,0-7H92.06a3.5,3.5,0,0,1,0,7Z"/></svg>