<svg id="圖層_1" data-name="圖層 1" xmlns="http://www.w3.org/2000/svg" viewBox="0 0 141.73 141.73"><defs><style>.cls-1{fill:#9fa0a0;}</style></defs><path class="cls-1" d="M105.59,114c.53,1.13,1.46,3.1,2.37,5.08,2.38,5.22.7,9.92-4.44,12.36q-3.88,1.84-7.83,3.59A8.57,8.57,0,0,1,84,130.67c-1-2.16-2-4.35-2.84-6.07-5.12.06-9.92.15-14.73.14a1.41,1.41,0,0,0-1.58,1.14q-1,2.94-2.1,5.84a8.34,8.34,0,0,1-11,5.17c-3-1.07-6-2.19-9-3.39a8.3,8.3,0,0,1-5-10.7c.78-2.4,1.68-4.76,2.39-6.75-3.7-3.59-7.22-7-10.8-10.43a1.61,1.61,0,0,0-1.42-.22c-1.95.83-3.84,1.81-5.79,2.65a8.53,8.53,0,0,1-11.48-4.24q-2-4.11-3.8-8.32c-2-4.81-.36-9.4,4.32-11.76,2.11-1.06,4.26-2,6.3-3C17.21,77.14,17,73.59,16.8,70a9.24,9.24,0,0,1,.14-2.93c.51-1.77-.26-2.44-1.83-2.88s-3.36-1.14-5-1.78A8.39,8.39,0,0,1,4.92,51.4c1-2.93,2.09-5.84,3.24-8.73a8.66,8.66,0,0,1,11-5.09c2,.68,4,1.49,6,2.12a1.82,1.82,0,0,0,1.55-.39C30,35.68,33.18,32,36.58,28.11c-.78-1.67-1.76-3.74-2.7-5.83-2.24-5-.5-9.76,4.45-12.09,2.65-1.25,5.3-2.49,8-3.68a8.58,8.58,0,0,1,11.53,4.14c1,2,1.82,4,2.83,5.91a1.82,1.82,0,0,0,1.39.76c4.36-.14,8.71-.42,13.06-.51,1.15,0,1.75-.23,2.11-1.39.58-1.93,1.29-3.81,2-5.68A8.64,8.64,0,0,1,90,4.73q4.63,1.59,9.17,3.46a8.13,8.13,0,0,1,5,10.27c-.61,2.15-1.4,4.26-2.2,6.35a1.59,1.59,0,0,0,.6,2.14q4.86,4.25,9.49,8.77a1.75,1.75,0,0,0,2.35.44,48,48,0,0,1,7.62-3.1,7.13,7.13,0,0,1,8.21,3.39A65.39,65.39,0,0,1,135.51,48c1.35,3.94-.8,7.9-4.7,9.87-1.85.93-3.78,1.68-5.6,2.67a2.22,2.22,0,0,0-.95,1.66c.11,4.54.31,9.08.55,13.61a1.62,1.62,0,0,0,.84,1.15c1.85.77,3.76,1.39,5.64,2.11,5.2,2,7.29,6.63,5.38,11.85-.93,2.54-1.86,5.08-2.81,7.6-1.89,5-6.38,7.12-11.39,5.34-1.89-.68-3.75-1.44-5.67-2a2,2,0,0,0-1.67.46c-1.61,1.8-3.1,3.71-4.63,5.58ZM70.76,37.22a33.53,33.53,0,0,0-33.6,33.57,33.67,33.67,0,1,0,33.6-33.57Z"/><path class="cls-1" d="M54.85,141a12.8,12.8,0,0,1-4.32-.77c-3.38-1.2-6.37-2.33-9.15-3.45a11.75,11.75,0,0,1-7-15c.54-1.64,1.13-3.27,1.66-4.73l-.69-.67c-2.53-2.46-4.94-4.8-7.38-7.12-.55.25-1.11.51-1.68.79-.93.43-1.87.87-2.81,1.28a12,12,0,0,1-16-5.92c-1.34-2.76-2.64-5.61-3.86-8.47-2.79-6.52-.39-13.06,6-16.26,1.42-.72,2.84-1.37,4.23-2l0-.51c-.16-2.65-.32-5.26-.45-7.88V70a15.27,15.27,0,0,1,0-2.69c-1.35-.42-2.64-.92-3.9-1.4l-.59-.23A11.9,11.9,0,0,1,1.62,50.25C2.75,47,3.82,44.1,4.91,41.38a12.18,12.18,0,0,1,15.4-7.12c.87.3,1.73.62,2.6.93s1.43.53,2.13.77c2.21-2.48,4.39-5,6.68-7.61l.72-.83c-.56-1.2-1.16-2.5-1.75-3.81C27.68,17,30.21,10.14,36.84,7c2.72-1.28,5.39-2.53,8-3.71A12.1,12.1,0,0,1,61,9.08c.46.91.89,1.84,1.32,2.77.31.66.6,1.3.91,1.93l4.39-.19c2.17-.1,4.41-.2,6.63-.26.58-1.77,1.23-3.44,1.81-4.88a12.09,12.09,0,0,1,15.15-7c3.26,1.12,6.42,2.31,9.38,3.54a11.65,11.65,0,0,1,7,14.45c-.55,1.94-1.22,3.81-1.9,5.59,2.82,2.48,5.57,5,8.2,7.57l.74-.34a36.94,36.94,0,0,1,6.6-2.57,10.68,10.68,0,0,1,12.09,5,69.51,69.51,0,0,1,5.56,12.2c1.87,5.47-.78,11.28-6.44,14.13-.83.42-1.67.8-2.51,1.19s-1.42.64-2.08,1c.08,3.33.23,6.9.44,11.07.65.25,1.31.48,2,.73l2.31.85c7,2.69,10,9.25,7.41,16.33l-.27.74c-.84,2.3-1.69,4.59-2.55,6.89-2.54,6.77-9,9.81-15.83,7.39l-1.86-.68c-.86-.32-1.69-.63-2.51-.9-.89,1-1.76,2.11-2.67,3.24l-1.05,1.29-3.32,4.1-.2.24c.44,1,1,2,1.45,3.13,3.16,6.92.7,13.74-6.12,17-2.89,1.37-5.48,2.56-7.92,3.63a12,12,0,0,1-16.27-6c-.68-1.39-1.33-2.79-1.92-4.08l-1.64,0c-3.28,0-6.41.09-9.56.09-.56,1.63-1.14,3.21-1.71,4.73A11.88,11.88,0,0,1,54.85,141ZM28.34,101.83a5,5,0,0,1,3.37,1.25c2.84,2.69,5.6,5.37,8.52,8.21l2.31,2.24a3.5,3.5,0,0,1,.86,3.69c-.21.6-.44,1.23-.68,1.88-.56,1.55-1.15,3.15-1.68,4.79a4.81,4.81,0,0,0,3,6.36c2.69,1.08,5.59,2.18,8.88,3.34,2.93,1,5.45-.15,6.59-3.12.69-1.81,1.38-3.74,2-5.71a4.87,4.87,0,0,1,4.89-3.52h0c3.55,0,7,0,10.77-.09l3.91-.05a3.43,3.43,0,0,1,3.21,2l.76,1.64c.63,1.36,1.33,2.88,2.06,4.39,1.46,3,4.13,4,7.16,2.65,2.38-1,4.91-2.2,7.74-3.54,3.38-1.61,4.34-4.28,2.75-7.74-.65-1.43-1.32-2.86-1.84-4l-.51-1.1a3.51,3.51,0,0,1,.45-3.69l1.58-1.94,3.34-4.11,1-1.27c1.19-1.46,2.41-3,3.71-4.43a5.42,5.42,0,0,1,5.28-1.48c1.42.42,2.77.93,4.08,1.41l1.76.65c3.21,1.14,5.73,0,6.94-3.27.86-2.27,1.69-4.55,2.53-6.83l.27-.74c1.27-3.45.08-6.07-3.34-7.38-.73-.28-1.46-.54-2.18-.8-1.16-.42-2.36-.85-3.55-1.34a5.07,5.07,0,0,1-3-4.2c-.28-5.3-.45-9.66-.55-13.72a5.68,5.68,0,0,1,2.78-4.81c1.15-.63,2.31-1.16,3.43-1.67.76-.34,1.52-.69,2.26-1.06,2.08-1,3.8-3.18,3-5.61a61.87,61.87,0,0,0-5-11,3.65,3.65,0,0,0-4.33-1.75,30.12,30.12,0,0,0-5.33,2.12l-1.7.78a5.21,5.21,0,0,1-6.24-1.13c-3-2.91-6.11-5.81-9.35-8.63a5,5,0,0,1-1.56-6.05c.75-1.93,1.53-4,2.11-6a4.66,4.66,0,0,0-2.93-6.09C95,10.25,92,9.11,88.9,8a5.16,5.16,0,0,0-6.38,3c-.64,1.6-1.37,3.49-1.94,5.39C79.82,19,78,20.25,75.19,20.31c-2.41.05-4.89.16-7.29.27-1.91.09-3.82.18-5.73.24H62a5.24,5.24,0,0,1-4.47-2.63c-.6-1.14-1.13-2.29-1.64-3.41-.4-.85-.79-1.71-1.22-2.55a5.09,5.09,0,0,0-7-2.52c-2.6,1.15-5.12,2.33-7.91,3.65-3.2,1.5-4.2,4.23-2.74,7.48.66,1.47,1.34,2.93,2,4.25l.72,1.55a3.5,3.5,0,0,1-.54,3.77L37,33c-2.63,3-5.1,5.85-7.66,8.7A5.25,5.25,0,0,1,24.15,43c-1.26-.39-2.48-.84-3.66-1.28-.8-.29-1.61-.59-2.42-.86A5.14,5.14,0,0,0,11.41,44c-1,2.63-2.09,5.43-3.18,8.58a4.9,4.9,0,0,0,3.1,6.63l.61.23c1.43.55,2.78,1.07,4.13,1.45A6.25,6.25,0,0,1,20,63.62a5.69,5.69,0,0,1,.35,4.46,6.85,6.85,0,0,0,0,1.6v.18c.13,2.59.28,5.18.45,7.81l.17,2.9a3.5,3.5,0,0,1-2,3.38l-1.95.9c-1.41.64-2.86,1.31-4.25,2-3,1.52-4,4.17-2.68,7.26,1.18,2.76,2.43,5.5,3.73,8.16a5,5,0,0,0,6.94,2.56c.87-.38,1.73-.79,2.59-1.19,1-.49,2.12-1,3.24-1.47A4.6,4.6,0,0,1,28.34,101.83Zm.9,6.8h0ZM127,73.76h0ZM14.48,67.71ZM24.13,37ZM71,108.15h0a37.22,37.22,0,0,1-.22-74.43h0A37.22,37.22,0,0,1,71,108.15Zm-.26-67.43A30.22,30.22,0,0,0,71,101.15h0a30.22,30.22,0,0,0-.23-60.43Z"/></svg>