<svg id="圖層_1" data-name="圖層 1" xmlns="http://www.w3.org/2000/svg" viewBox="0 0 141.73 141.73">
    <defs>
        <style>.cls-2{fill:#fff;}</style>
    </defs>
    <path class="cls-1"
        d="M137.37,123.21H4.37a3,3,0,0,1-3-3c0-7.44,2-13.06,5.92-16.71,5.82-5.46,14.16-5,18.64-4.7l1.36.07C35.91,86.59,45.41,80.3,55.52,80.14,67.84,80,77.15,89,80.83,93.14c6.81-3.54,13-4.17,18.39-1.89,6.92,2.92,10.52,9.89,12.13,14.09,7-2.63,13.11-2.68,18.21-.14,8.47,4.21,10.65,14,10.74,14.38a3,3,0,0,1-2.93,3.63Zm-129.85-6H133.07a14.28,14.28,0,0,0-6.22-6.66c-4.12-2-9.53-1.51-16.08,1.54a3,3,0,0,1-4.19-2c0-.1-2.54-10.28-9.72-13.29C92.74,95,87.62,96,81.64,99.56a3,3,0,0,1-4-.81c-.09-.12-9.38-12.61-21.77-12.61h-.32c-8.33.15-16.43,5.93-24.08,17.18a3.73,3.73,0,0,1-.36.43c-1.27,1.27-2.89,1.18-5.57,1-3.83-.23-10.24-.61-14.18,3.08C9.24,109.87,7.94,113,7.52,117.21Z" />
    <circle class="cls-2" cx="49.04" cy="103.07" r="1.52" />
    <path class="cls-1" d="M49,106.1a3,3,0,1,1,3-3A3,3,0,0,1,49,106.1Zm0-3,0,0Z" />
    <circle class="cls-2" cx="75.43" cy="107.13" r="1.52" />
    <path class="cls-1"
        d="M75.43,110.16a3,3,0,1,1,3-3A3,3,0,0,1,75.43,110.16Zm0-3,0,0S75.45,107.11,75.43,107.11Z" />
    <circle class="cls-2" cx="96.76" cy="109.16" r="1.52" />
    <path class="cls-1" d="M96.76,112.19a3,3,0,1,1,3-3A3,3,0,0,1,96.76,112.19Zm0-3,0,0Z" />
    <circle class="cls-2" cx="23.66" cy="112.21" r="1.52" />
    <path class="cls-1"
        d="M23.66,115.23a3,3,0,1,1,3-3A3,3,0,0,1,23.66,115.23Zm0-3,0,0A0,0,0,0,0,23.66,112.19Z" />
    <circle class="cls-2" cx="62.24" cy="111.19" r="0.51" />
    <path class="cls-1"
        d="M62.24,113.2a2,2,0,1,1,2-2A2,2,0,0,1,62.24,113.2Zm0-3a1,1,0,1,0,1,1A1,1,0,0,0,62.24,110.2Z" />
    <circle class="cls-2" cx="122.14" cy="112.21" r="0.51" />
    <path class="cls-1"
        d="M122.14,114.22a2,2,0,1,1,2-2A2,2,0,0,1,122.14,114.22Zm0-3a1,1,0,1,0,1,1A1,1,0,0,0,122.14,111.22Z" />
    <polygon class="cls-1" points="90.34 56.41 101.82 25.51 117.31 32.72 100.31 61.05 90.34 56.41" />
    <path class="cls-1"
        d="M100.31,61.55a.42.42,0,0,1-.22,0l-10-4.63a.5.5,0,0,1-.26-.63l11.48-30.9a.5.5,0,0,1,.68-.28l15.5,7.21a.51.51,0,0,1,.26.31.47.47,0,0,1-.05.4l-17,28.33A.49.49,0,0,1,100.31,61.55ZM91,56.16l9.14,4.25L116.6,32.94l-14.5-6.75Z" />
    <rect class="cls-1" x="100.47" y="22.42" width="17.09" height="15.77" rx="6"
        transform="translate(22.97 -43.16) rotate(24.96)" />
    <path class="cls-1"
        d="M110.51,39.59a6.51,6.51,0,0,1-2.73-.6l-4.61-2.15A6.51,6.51,0,0,1,100,28.2l1.59-3.42a6.51,6.51,0,0,1,8.64-3.15l4.61,2.15A6.5,6.5,0,0,1,118,32.41l-1.59,3.42A6.51,6.51,0,0,1,110.51,39.59Zm-3-17.56a5.67,5.67,0,0,0-1.9.33,5.48,5.48,0,0,0-3.1,2.84l-1.6,3.42a5.52,5.52,0,0,0,2.67,7.31l4.61,2.15h0a5.51,5.51,0,0,0,7.31-2.67L117.1,32a5.51,5.51,0,0,0-2.66-7.31l-4.62-2.14A5.43,5.43,0,0,0,107.52,22Z" />
    <path class="cls-1"
        d="M96.86,56.42l0,.1L95.7,58.91,80,92.62a41,41,0,0,0-8.23-7.21c-1-22.72,10.07-32.95,9.07-33.42,5.33-4.22,9.08-3.05,11.47-.91A13.52,13.52,0,0,1,95.62,56Z" />
    <path class="cls-1"
        d="M80,93.12a.49.49,0,0,1-.38-.18,41.13,41.13,0,0,0-8.13-7.11.51.51,0,0,1-.23-.4c-.82-17.79,5.79-28,8.27-31.89a15.09,15.09,0,0,0,.83-1.37l0-.12a.5.5,0,0,1,.19-.45c5.75-4.56,9.76-3,12.11-.89A13.59,13.59,0,0,1,96,55.58L97,56a.47.47,0,0,1,.28.27.48.48,0,0,1,0,.39l0,.1-1.13,2.41L80.47,92.83a.5.5,0,0,1-.38.28Zm-7.75-8a42.31,42.31,0,0,1,7.61,6.59l16.3-35-.73-.26a.54.54,0,0,1-.3-.31A13.16,13.16,0,0,0,92,51.46c-2.94-2.65-6.5-2.4-10.58.73a5.83,5.83,0,0,1-1,1.89C78,57.84,71.54,67.81,72.27,85.13Zm8.37-32.68Z" />
    <path class="cls-1"
        d="M110.51,65.92c-.91-.42-1.54,12-15.14,24.6-3.73-.32-8.28.71-13.77,4,0,0-.55-.75-1.59-1.91L95.7,58.91h0l1.11-2.39,1.13.66a14,14,0,0,1,5.11-.72C106.44,56.68,110.29,58.57,110.51,65.92Z" />
    <path class="cls-1"
        d="M81.6,95a.51.51,0,0,1-.41-.2s-.55-.75-1.55-1.88a.53.53,0,0,1-.08-.55L95.25,58.7a.41.41,0,0,1,0-.09l1.06-2.3a.48.48,0,0,1,.31-.26.47.47,0,0,1,.4,0l.94.55a14.31,14.31,0,0,1,5.08-.68c3.49.23,7.69,2.14,7.92,9.95a.49.49,0,0,1-.22.43l-.11.06a15.77,15.77,0,0,0-.51,1.51,49.43,49.43,0,0,1-14.46,23,.56.56,0,0,1-.39.13c-4-.35-8.53,1-13.46,3.94A.48.48,0,0,1,81.6,95Zm-1-2.5c.51.59.88,1,1.12,1.35C86.61,91,91.12,89.7,95.19,90a48.39,48.39,0,0,0,14-22.39,5.84,5.84,0,0,1,.79-2c-.25-5.46-2.59-8.37-7-8.66a13.28,13.28,0,0,0-4.9.69.54.54,0,0,1-.43,0L97,57.23l-.88,1.89a.59.59,0,0,1,0,.08Z" />
</svg>