<svg id="圖層_1" data-name="圖層 1" xmlns="http://www.w3.org/2000/svg" viewBox="0 0 141.73 141.73">
    <path class="cls-1"
        d="M70.87,1.52a69.35,69.35,0,1,0,69.35,69.35A69.34,69.34,0,0,0,70.87,1.52Zm30.42,67.64c-3.5,3-7,6-10.54,8.9a3.12,3.12,0,0,0-1.15,3.48C90.73,86,91.81,90.48,92.91,95a5.66,5.66,0,0,1-8.51,6.13L71.32,93a.75.75,0,0,0-.91,0q-6.49,4-13,8.06a5.65,5.65,0,0,1-8.62-3.6,7.84,7.84,0,0,1,.33-3.6c1-4.12,2-8.25,3-12.37A3.08,3.08,0,0,0,51,78.05q-5.25-4.39-10.45-8.83a5.64,5.64,0,0,1,2.27-9.86,18,18,0,0,1,2.66-.29c4.08-.31,8.18-.62,12.27-.9a2.84,2.84,0,0,0,2.61-2Q63,49.77,65.6,43.36a5.66,5.66,0,0,1,10.52,0c1.77,4.27,3.51,8.56,5.26,12.84a2.9,2.9,0,0,0,2.71,2c3.52.23,7,.51,10.57.78a40.82,40.82,0,0,1,4.14.38,5.46,5.46,0,0,1,4.5,5.25A5.63,5.63,0,0,1,101.29,69.16Z" />
</svg>