<svg id="圖層_1" data-name="圖層 1" xmlns="http://www.w3.org/2000/svg" viewBox="0 0 141.73 141.73">
    <path class="cls-1"
        d="M115.69,125.55l-4.06-9.62a8.45,8.45,0,0,0-1.16-2L94.7,76.61a4.12,4.12,0,0,0-5.38-2.19l-1.15.49L81.51,61.37c4.78-5.87,18.88-23.23,18.88-23.73,6-9,5.42-13.87,6-15.07a48,48,0,0,0-2.2-19.63L74.31,48.11a10.07,10.07,0,0,0-4-.83,9.94,9.94,0,0,0-3.09.48L37.51,2.94a48.19,48.19,0,0,0-2.2,19.63c.61,1.2,0,6,6,15.07,0,.5,14.11,17.86,18.88,23.73L53.56,74.91l-1.15-.49A4.12,4.12,0,0,0,47,76.61L31.27,114a7.8,7.8,0,0,0-1.16,2L26,125.55a8.68,8.68,0,0,0,4.61,11.32l3,1.25a8.68,8.68,0,0,0,11.32-4.61L49,123.89a7.85,7.85,0,0,0,.59-2.18L65.35,84.34a4.13,4.13,0,0,0-1.28-4.85l5.77-11.74h.43a11.46,11.46,0,0,0,1.56-.11h0l5.82,11.84a4.11,4.11,0,0,0-1.27,4.85l15.77,37.37a7.85,7.85,0,0,0,.59,2.18l4.06,9.62a8.68,8.68,0,0,0,11.32,4.61l3-1.25A8.67,8.67,0,0,0,115.69,125.55ZM70.87,62.48a4.34,4.34,0,1,1,4.33-4.33A4.33,4.33,0,0,1,70.87,62.48Z" />
    <path class="cls-1"
        d="M36.94,139.79a9.63,9.63,0,0,1-3.73-.75l-2.95-1.25a9.65,9.65,0,0,1-5.14-12.63l4.06-9.62a9.45,9.45,0,0,1,1.22-2.08L46.11,76.22a5.11,5.11,0,0,1,2.78-2.74,5,5,0,0,1,3.91,0l.28.12L59,61.5c-14.67-18-17.83-22.13-18.51-23.32l0,0c-4.76-7.14-5.5-11.81-5.86-14.05A7.87,7.87,0,0,0,34.42,23a1,1,0,0,1-.1-.33A48.66,48.66,0,0,1,36.57,2.6a1,1,0,0,1,1.78-.21L67.61,46.6a11.48,11.48,0,0,1,6.31.28L103.39,2.39a1,1,0,0,1,1-.44,1,1,0,0,1,.82.65,48.66,48.66,0,0,1,2.25,20.09.84.84,0,0,1-.1.33,6.93,6.93,0,0,0-.22,1.13c-.36,2.24-1.11,6.91-5.87,14.05v0c-.69,1.19-3.85,5.29-18.52,23.32l6,12.12.28-.12a5.12,5.12,0,0,1,6.69,2.72l15.72,37.24a9.41,9.41,0,0,1,1.21,2.08l4.06,9.62h0a9.65,9.65,0,0,1-5.14,12.63l-3,1.25a9.66,9.66,0,0,1-12.63-5.14l-4.06-9.62a8.75,8.75,0,0,1-.64-2.31L75.46,84.73a5.13,5.13,0,0,1,1-5.47L71.26,68.72c-.28,0-.54,0-.81,0l-5.16,10.5a5.11,5.11,0,0,1,1,5.47L50.54,122a8.75,8.75,0,0,1-.64,2.31l-4.06,9.62A9.65,9.65,0,0,1,36.94,139.79ZM50.83,75.1a3.22,3.22,0,0,0-1.18.23A3.13,3.13,0,0,0,48,77L32.19,114.36a1.09,1.09,0,0,1-.14.23,7.36,7.36,0,0,0-1,1.73L27,125.94A7.66,7.66,0,0,0,31,136l3,1.25a7.66,7.66,0,0,0,10-4.08l4.06-9.62a7.06,7.06,0,0,0,.52-1.91.9.9,0,0,1,.07-.27L64.43,84a3.15,3.15,0,0,0-1-3.68A1,1,0,0,1,63.17,79l5.77-11.73a1,1,0,0,1,1-.55h.36a9.85,9.85,0,0,0,1.41-.1,1,1,0,0,1,1.06.54L78.56,79a1,1,0,0,1-.28,1.24,3.12,3.12,0,0,0-1,3.68l15.77,37.36a1.38,1.38,0,0,1,.08.27,6.69,6.69,0,0,0,.51,1.91l4.07,9.62a7.64,7.64,0,0,0,10,4.07l2.94-1.24a7.65,7.65,0,0,0,4.08-10l-4.06-9.62a7.76,7.76,0,0,0-1-1.73,1.76,1.76,0,0,1-.14-.23L93.78,77a3.12,3.12,0,0,0-4.07-1.66l-1.15.49a1,1,0,0,1-1.29-.48L80.62,61.81a1,1,0,0,1,.12-1.07C96,41.92,99.07,37.93,99.46,37.28a.69.69,0,0,1,.1-.19c4.51-6.77,5.21-11.15,5.55-13.26a7.11,7.11,0,0,1,.34-1.52,47,47,0,0,0-1.56-17L75.15,48.66a1,1,0,0,1-1.23.36,9.43,9.43,0,0,0-6.43-.31,1,1,0,0,1-1.14-.4L37.85,5.26a46.89,46.89,0,0,0-1.56,17,7.89,7.89,0,0,1,.33,1.52c.34,2.11,1,6.49,5.55,13.26a.69.69,0,0,1,.1.19c.39.65,3.42,4.64,18.72,23.46a1,1,0,0,1,.13,1.07L54.46,75.35a1,1,0,0,1-1.29.48L52,75.34A3.08,3.08,0,0,0,50.83,75.1Zm20-11.62a5.34,5.34,0,1,1,5.33-5.33A5.34,5.34,0,0,1,70.87,63.48Zm0-8.67a3.34,3.34,0,1,0,3.33,3.34A3.35,3.35,0,0,0,70.87,54.81Z" />
</svg>